<mxfile host="Electron" agent="Mozilla/5.0 (Macintosh; Intel Mac OS X 10_15_7) AppleWebKit/537.36 (KHTML, like Gecko) draw.io/26.0.4 Chrome/128.0.6613.186 Electron/32.2.5 Safari/537.36" version="26.0.4">
  <diagram name="Page-1" id="0_zKBw4BjzZlQdIS3VmF">
    <mxGraphModel dx="902" dy="674" grid="1" gridSize="10" guides="1" tooltips="1" connect="1" arrows="1" fold="1" page="1" pageScale="1" pageWidth="827" pageHeight="1169" math="0" shadow="0">
      <root>
        <mxCell id="0" />
        <mxCell id="1" parent="0" />
        <mxCell id="-H8vIctdZyZoKpkkq821-1" value="" style="group" vertex="1" connectable="0" parent="1">
          <mxGeometry x="40" y="40" width="290" height="500" as="geometry" />
        </mxCell>
        <mxCell id="O73Z84jBXJhSjB4GHqbN-3" value="&lt;div&gt;Data Replication&lt;/div&gt;" style="rounded=0;whiteSpace=wrap;html=1;fontColor=#FFFFFF;fillColor=#F0AB00;strokeColor=#F0AB00;fontSize=16;shadow=1;" parent="-H8vIctdZyZoKpkkq821-1" vertex="1">
          <mxGeometry width="290" height="60" as="geometry" />
        </mxCell>
        <mxCell id="O73Z84jBXJhSjB4GHqbN-6" value="&lt;div style=&quot;font-size: 16px;&quot;&gt;&lt;div&gt;&lt;font color=&quot;#000000&quot;&gt;Table-based integration of data covering data replication, migration, or analytical use cases based on ETL/ELT.&amp;nbsp;&lt;/font&gt;&lt;/div&gt;&lt;div&gt;&lt;br&gt;&lt;/div&gt;&lt;/div&gt;" style="rounded=0;whiteSpace=wrap;html=1;fontColor=#FFFFFF;fillColor=#FFFFFF;strokeColor=#feefc9;fontSize=16;shadow=1;align=center;verticalAlign=top;" parent="-H8vIctdZyZoKpkkq821-1" vertex="1">
          <mxGeometry y="60" width="290" height="320" as="geometry" />
        </mxCell>
        <mxCell id="O73Z84jBXJhSjB4GHqbN-7" value="" style="group" parent="-H8vIctdZyZoKpkkq821-1" vertex="1" connectable="0">
          <mxGeometry x="170" y="210" width="110" height="100" as="geometry" />
        </mxCell>
        <mxCell id="O73Z84jBXJhSjB4GHqbN-8" value="" style="rounded=0;whiteSpace=wrap;html=1;" parent="O73Z84jBXJhSjB4GHqbN-7" vertex="1">
          <mxGeometry y="30" width="110" height="60" as="geometry" />
        </mxCell>
        <mxCell id="O73Z84jBXJhSjB4GHqbN-9" value="App / DWH" style="rounded=0;whiteSpace=wrap;html=1;fillColor=#000000;fontColor=#FFFFFF;fontSize=16;" parent="O73Z84jBXJhSjB4GHqbN-7" vertex="1">
          <mxGeometry width="110" height="30" as="geometry" />
        </mxCell>
        <mxCell id="O73Z84jBXJhSjB4GHqbN-10" value="" style="rounded=0;whiteSpace=wrap;html=1;fillColor=#595959;fontColor=#FFFFFF;align=left;verticalAlign=top;" parent="O73Z84jBXJhSjB4GHqbN-7" vertex="1">
          <mxGeometry x="10" y="40" width="90" height="40" as="geometry" />
        </mxCell>
        <mxCell id="O73Z84jBXJhSjB4GHqbN-11" value="" style="shape=image;verticalLabelPosition=bottom;labelBackgroundColor=default;verticalAlign=top;aspect=fixed;imageAspect=0;image=data:image/png,iVBORw0KGgoAAAANSUhEUgAAAJ4AAACeCAYAAADDhbN7AAAAAXNSR0IArs4c6QAAAIRlWElmTU0AKgAAAAgABQESAAMAAAABAAEAAAEaAAUAAAABAAAASgEbAAUAAAABAAAAUgEoAAMAAAABAAIAAIdpAAQAAAABAAAAWgAAAAAAAADcAAAAAQAAANwAAAABAAOgAQADAAAAAQABAACgAgAEAAAAAQAAAJ6gAwAEAAAAAQAAAJ4AAAAAeonODQAAAAlwSFlzAAAh1QAAIdUBBJy0nQAADL5JREFUeAHtnXuMXUUdx+c+drfsltJuiy2tFajEaknFAJr4akIEQjABtQ9joUQLklRBAwaVxD8QoUr5Q/4RIyg0to2RWlOBRIkkiI+ioTYUBdsA0nbb7Yt23e2W3e59+Z3dndu5Z88999xzzj0z95zvJLMzZ+Y3M7/fZ35nzvOeFYKBBEiABEiABEiABEiABEiABEiABEiABEiABEiABEiABEiABEiABEiABEiABEiABEiABEiABEiABEiABEiABEiABEiABEiABEiABEiABEiABEiABEiABEiABEiABEiABEiABEIRyIRqnZLGlUpFcspOmqtSN+vLk4XlTCZTcRNg2QSB1DgenGdxuVz+Ksy+KpvNXm6bA5RKpR25XG479PolnPaobfpRnzoE4FgXYPIeQ5rYAPvuh3Gz6yBoq+K2XPEA/06sXg9h5TonCtroq4h+NqK/l5DKOCQjVp5TSEMF6HouOpiBOAvx0xjrSoyzNlSnWmP0dwr9rYGuv9OKmY2CAPb0Tc0uY2hzDPGnaPeBKHSIuw/ovVjajTgQwPb1ceubmPEAfMwPcMjth1xXYgz3YQjsnVYsFn05JPiM+ugy3SKA9BMvZ0P9btTLwxaDgwC4XAI+R7z4oe5rjmbp3gSQ77gBA8giyiM5j0sbYXC7GPzKblxR9om08Zhibx0wi6cIsiAwATBe5uQsnTJwhxE0NHpVK2HoNuDKzKg+ui5JzAO3vPld0m0zxdzrLryuX+R57HGvq04B5GlTAJQOaUjBWD5RyeAWTPWCA+zvNmG7sRUGBldXOzpd/FNvmr+xFS9+1BzRJgJWOB4Ou7+yCUrSdQHvfaZttOJQqyDwkKtItCbF4bUTPZ9x9m6CuxUrngIhzzsmQ4cqYxqeAJguklzR0xSnC997sB6scDxcZT3iUH/8cZm81wRe73XUcdMHAXC7TDqbDBB/S28Crjfp26nKTyCZ+KsMhwP+US935gFsQMkynUoAfOSTnroB9XepVrqQKktF6mU46jr0eq88YG5GvbFzVROTBXtnYyd91ouLqgOf0246qnqZutUntqwZwwFvjy7fRP52yM5pR4jQ+z2I32vC1qoonPK5RjZXhZFpJNuKemMrhTRcGdTsVRWafhltn1Ttw6SYpP+h/duIr+CFyheR7oI+/wrTp1tb6HwZyj+CdAXiAuQvxngz3WQDlK2AztuaaQcdAvNvZpx6sm3peG7GgON8xI2YgGvc6pNQBvu2wb5bEN8Naw/6Mup4YfUP3F4arkLgTnw2xDh5xF4csjeoMW1Mod966DUTMefTtMBiuv2BOwnRMDErXggGvppioqZBcO6k8EUujfbJMqxG+13qrCuSjqeUgs6x+0HsAypjTRuu9Ehrapq/FTeQ0zr5ababjpfm2Tdou9WOJw8HMuCk+7hBRhy6BQSsdjxlL+53zZlwwZq/C1U90/YjYLvjef3o50D74abGxgnoa5dfZXDIrfk2it92lJtKIAj/qb0EL+HtlODs2rqldDxlgIn7eLYfahUbpgkjYIXjYec7L2FcrTYHvD9ktYKtVE4u9XrA+dtrrRyPfU8QAOdBnbvMp4qN03i1DTCbUwUiJmPxdam/KsbONCYV7BhGNx7OVu/jMvy9RYjpAuNrdc4qD96jKi/TEEO0X1On4djO6WXOPPbYl9vPyvg1hlN5vq2tNNL5qrJUpF6Go26nXu+RX5UKWHWMBJd1HmyqVXjL+vfOLqqVyDjrEr3t13DswVt02UZ5yA8h/ixJ8GDPZsThRrY76u/xYqDLesklri6o4ZiAR/W2QfLo4yTabUT8EqKRbyRj3I8i3oHVaBvS0AE2/bAZJ9EHbKZdVLKJeHIBiN/CBD6Ilwm6ogJjaz+wcwR2LsfThimHz2Z0lo6n5E08uVBjx57GscdhjCzitZis3+rj2Z7H6vVr6NjSHy3pDGKffAyYiBUvanCYlM/BWa/BSrAEaQ/Sbowx/tFvrDZ1P/4NWfn/MWQYQh9DkD2BdBfSP6GPFyaq7PgrHU9pYmLFo+Mp+ilLTTueFc9qUzbnNBcE6Hh0AyMErHY8eThQASfcm4wQ4qDJIqAcSqb1LNNlnHmcyD9Trx3LGxPQeTaWTpCEX8Ox0h3QZfV8gnDEbkpqOQYxHG3y8mUB2RYO+U7ss5WgAYPwj9J83k6JkmYb9SUdT6lr4j6e1RcXCgzT5BGg4yVvTtvCIiscT1/224JaGysJ1gts4J23haEGI4dzDqP/0tIWJlHqAb7ys7fWfDXfihXPAbgknVC+oeEo52YAAuD4z8md2hqnC2BGdE0kDBVkr7ghXPfz+YVCYS9kW/551uisM9cTOMlP7tZ9Wxl1P5LaKfYyNaetgZHrGY7yS/U6j7yNq3XsJMFniQcjvUp+Srca9IpqYRoyfgyHzFpdrlEeq+Z2yCTyV/Kw63LY94dGDBz1K+r5ki5XTyaR5UEMx1OLP+vtms1PPvW4Du3m2QIVumQQ5ZXmahwGdyMNHOSO59cufRC/baKUa+snF4An/7fFY7gK/myUUHz0NegiE+v3X+BkW/Bm8zdh+wkXXRoWScdTQiaeXKixY0+l4Sq0YnCsbqsR6362QY1tcwrneh763dAKPrrdrejf2j5tMBw6dCFOR7wBTvoXXadW5eFML6Dv6xF7EI3dR8XY1WDCSdr6UGsCWFLGlF6nbDFxqOUtCUWfaawE6Hix4uZgioDVjlc9CalUvq4UZkoCoQhoTlU913B2qMvoeZygN/xHwM6+uF1LQOdZW5PwLT+GT14B6qI1+YQjaql5OsiWDmRb580aDvl5uLM/1mw72+y2RR/THHk7xRZPiFkP6XhqSN5OUSSYJp6A1Ve1iaefYgONOd6JH5/9fLG+7Kd4LmIzXec9uK3mNb3YdDDmeCMvba0xUsIYfe3FnTWF3IiUQOF0//jFmeq0UnwXryKfUZuxpsYcT1p5cFVGFA7+p2pw15JlV0gHLJweKlULmQlNQDKVId99QYfqbPSNR8TQ9h61GXtq1PGktUfvXjLugLrl+e5z5Sdkq2H4+cfn6vXMexMYffWJRVV4yDilB3+TEWd23+UsjnXbuOMpa+XqJ6Nb6PnMbUcUyMLQ8ZPvPPXAAje5tJadevrm5YVT/UXFqGvpV95yYyEdTkYbgjEt+laKKXuiDiR/4YfFvId360We+dKpY5/Pz5jr+9Vvz84sriwc2nFPfv7HN/hVcXA7Xowuqk8zu7eauTL+b2Fb63i1iDLi/PV/F12XfKy22MdWaWykUDz4ysHSv3/+qZ4bn+j30cSoyMC2NWt6lt37YHbGhfNznd1N/6TzzL4nxejOtU3ZQMdrAlfX0qvFrHW/EPk572uilT/R4vDxghg+chwfxX8z09F9LDd70atj+/5RkK2Lx/ae/TxabgRvEGeqO29+3qWzpEzngk/miv07r66UyudVOrsX5WZeND3XNb0qJ2WiCKWhvWLk5ZtFaSDczQA6XgSzkZ29UMzdsEtke3pFJmvNKWxgyyrlgiiP9Ivh5/CrzfJI4H68GppwPGPv/HuBCFNXPtEnDt96/ngXHYtceursER0LrhSd779KTFu6UuTnLnERiqeoePJ1MbZniygc/psoHt4BxxpfVGsGz8+v2UzMRuTLv18yjS4u/PbjJefqeF4NmqzLzsZn81v8T6zicDwTK177H4uadBaK20GAjmfHPKROCzpe6qbcDoPpeHbMQ+q0oOOlbsrtMJiOZ8c8pE4LOl7qptwOg+l4dsxD6rSg46Vuyu0w2JzjVcQeOxCkW4viIbHRBAFjj8yksa1+bMZHZo1dysTjMqmVuRUPgy/cGv8LiI2nIh0S5bKomHI6Sdio40kFpPMBwr0yzxAPgbFDYlXvF83OvdFDrRPzgeXi0UxWrHOWB93mobaWXGVI3DfrVvH92lIzW1Y5no5g/wpRyGZEqPcF6Xh4xa8iCr2rRKfO1oa8tY6nw+n7gtgscuImvcxPPq2OVx4Qm3pvF7f4YWRKpi0czwmnb4W4E79RewhnKec46/TtNDheuSgK5T5x/5xviwd0223Pt6XjuUF9e6WYly+JH2BlvE3VJ83xikfFM9lhcUfvd8UBZWO7polxvEYT0P8NcUVmmlidqYjrsVJ+sJG8n/qoXn2XtzZEUezJFMWzoyfF4wsfFm/4Gb+dZVLjeGEmqXLf+K0HdetJpeNdvnni7L3IwTNi/B88/3dAlFdtFfz+SxjobEsCJEACJEACJEACJEACJEACJEACJEACJEACJEACJEACJEACJEACJEACJEACJEACJEACJEACJEACJEACJEACJEACJEACJEACJEACJEACJEACJEACJEACJEACJEACJNBGBP4Pta7qWmho+60AAAAASUVORK5CYII=;" parent="O73Z84jBXJhSjB4GHqbN-7" vertex="1">
          <mxGeometry x="30" y="35" width="50" height="50" as="geometry" />
        </mxCell>
        <mxCell id="O73Z84jBXJhSjB4GHqbN-24" value="&lt;div style=&quot;font-size: 14px;&quot;&gt;&lt;div&gt;&lt;u&gt;Example&lt;/u&gt;: Replication of data from legacy applications or databases into SAP HANA e.g. for migration, analytics or big data warehousing.&lt;/div&gt;&lt;/div&gt;" style="rounded=0;whiteSpace=wrap;html=1;fontColor=#000000;fillColor=#FEEFC9;strokeColor=#FEEFC9;align=left;verticalAlign=top;fontSize=14;" parent="-H8vIctdZyZoKpkkq821-1" vertex="1">
          <mxGeometry y="400" width="290" height="100" as="geometry" />
        </mxCell>
        <mxCell id="O73Z84jBXJhSjB4GHqbN-28" value="" style="group" parent="-H8vIctdZyZoKpkkq821-1" vertex="1" connectable="0">
          <mxGeometry x="10" y="150" width="110" height="100" as="geometry" />
        </mxCell>
        <mxCell id="O73Z84jBXJhSjB4GHqbN-29" value="" style="rounded=0;whiteSpace=wrap;html=1;" parent="O73Z84jBXJhSjB4GHqbN-28" vertex="1">
          <mxGeometry y="30" width="110" height="60" as="geometry" />
        </mxCell>
        <mxCell id="O73Z84jBXJhSjB4GHqbN-30" value="Application" style="rounded=0;whiteSpace=wrap;html=1;fillColor=#000000;fontColor=#FFFFFF;fontSize=16;" parent="O73Z84jBXJhSjB4GHqbN-28" vertex="1">
          <mxGeometry width="110" height="30" as="geometry" />
        </mxCell>
        <mxCell id="O73Z84jBXJhSjB4GHqbN-31" value="" style="rounded=0;whiteSpace=wrap;html=1;fillColor=#595959;fontColor=#FFFFFF;align=left;verticalAlign=top;" parent="O73Z84jBXJhSjB4GHqbN-28" vertex="1">
          <mxGeometry x="10" y="40" width="90" height="40" as="geometry" />
        </mxCell>
        <mxCell id="O73Z84jBXJhSjB4GHqbN-32" value="" style="shape=image;verticalLabelPosition=bottom;labelBackgroundColor=default;verticalAlign=top;aspect=fixed;imageAspect=0;image=data:image/png,iVBORw0KGgoAAAANSUhEUgAAAJ4AAACeCAYAAADDhbN7AAAAAXNSR0IArs4c6QAAAIRlWElmTU0AKgAAAAgABQESAAMAAAABAAEAAAEaAAUAAAABAAAASgEbAAUAAAABAAAAUgEoAAMAAAABAAIAAIdpAAQAAAABAAAAWgAAAAAAAADcAAAAAQAAANwAAAABAAOgAQADAAAAAQABAACgAgAEAAAAAQAAAJ6gAwAEAAAAAQAAAJ4AAAAAeonODQAAAAlwSFlzAAAh1QAAIdUBBJy0nQAADL5JREFUeAHtnXuMXUUdx+c+drfsltJuiy2tFajEaknFAJr4akIEQjABtQ9joUQLklRBAwaVxD8QoUr5Q/4RIyg0to2RWlOBRIkkiI+ioTYUBdsA0nbb7Yt23e2W3e59+Z3dndu5Z88999xzzj0z95zvJLMzZ+Y3M7/fZ35nzvOeFYKBBEiABEiABEiABEiABEiABEiABEiABEiABEiABEiABEiABEiABEiABEiABEiABEiABEiABEiABEiABEiABEiABEiABEiABEiABEiABEiABEiABEiABEiABEiABEiABEiABEIRyIRqnZLGlUpFcspOmqtSN+vLk4XlTCZTcRNg2QSB1DgenGdxuVz+Ksy+KpvNXm6bA5RKpR25XG479PolnPaobfpRnzoE4FgXYPIeQ5rYAPvuh3Gz6yBoq+K2XPEA/06sXg9h5TonCtroq4h+NqK/l5DKOCQjVp5TSEMF6HouOpiBOAvx0xjrSoyzNlSnWmP0dwr9rYGuv9OKmY2CAPb0Tc0uY2hzDPGnaPeBKHSIuw/ovVjajTgQwPb1ceubmPEAfMwPcMjth1xXYgz3YQjsnVYsFn05JPiM+ugy3SKA9BMvZ0P9btTLwxaDgwC4XAI+R7z4oe5rjmbp3gSQ77gBA8giyiM5j0sbYXC7GPzKblxR9om08Zhibx0wi6cIsiAwATBe5uQsnTJwhxE0NHpVK2HoNuDKzKg+ui5JzAO3vPld0m0zxdzrLryuX+R57HGvq04B5GlTAJQOaUjBWD5RyeAWTPWCA+zvNmG7sRUGBldXOzpd/FNvmr+xFS9+1BzRJgJWOB4Ou7+yCUrSdQHvfaZttOJQqyDwkKtItCbF4bUTPZ9x9m6CuxUrngIhzzsmQ4cqYxqeAJguklzR0xSnC997sB6scDxcZT3iUH/8cZm81wRe73XUcdMHAXC7TDqbDBB/S28Crjfp26nKTyCZ+KsMhwP+US935gFsQMkynUoAfOSTnroB9XepVrqQKktF6mU46jr0eq88YG5GvbFzVROTBXtnYyd91ouLqgOf0246qnqZutUntqwZwwFvjy7fRP52yM5pR4jQ+z2I32vC1qoonPK5RjZXhZFpJNuKemMrhTRcGdTsVRWafhltn1Ttw6SYpP+h/duIr+CFyheR7oI+/wrTp1tb6HwZyj+CdAXiAuQvxngz3WQDlK2AztuaaQcdAvNvZpx6sm3peG7GgON8xI2YgGvc6pNQBvu2wb5bEN8Naw/6Mup4YfUP3F4arkLgTnw2xDh5xF4csjeoMW1Mod966DUTMefTtMBiuv2BOwnRMDErXggGvppioqZBcO6k8EUujfbJMqxG+13qrCuSjqeUgs6x+0HsAypjTRuu9Ehrapq/FTeQ0zr5ababjpfm2Tdou9WOJw8HMuCk+7hBRhy6BQSsdjxlL+53zZlwwZq/C1U90/YjYLvjef3o50D74abGxgnoa5dfZXDIrfk2it92lJtKIAj/qb0EL+HtlODs2rqldDxlgIn7eLYfahUbpgkjYIXjYec7L2FcrTYHvD9ktYKtVE4u9XrA+dtrrRyPfU8QAOdBnbvMp4qN03i1DTCbUwUiJmPxdam/KsbONCYV7BhGNx7OVu/jMvy9RYjpAuNrdc4qD96jKi/TEEO0X1On4djO6WXOPPbYl9vPyvg1hlN5vq2tNNL5qrJUpF6Go26nXu+RX5UKWHWMBJd1HmyqVXjL+vfOLqqVyDjrEr3t13DswVt02UZ5yA8h/ixJ8GDPZsThRrY76u/xYqDLesklri6o4ZiAR/W2QfLo4yTabUT8EqKRbyRj3I8i3oHVaBvS0AE2/bAZJ9EHbKZdVLKJeHIBiN/CBD6Ilwm6ogJjaz+wcwR2LsfThimHz2Z0lo6n5E08uVBjx57GscdhjCzitZis3+rj2Z7H6vVr6NjSHy3pDGKffAyYiBUvanCYlM/BWa/BSrAEaQ/Sbowx/tFvrDZ1P/4NWfn/MWQYQh9DkD2BdBfSP6GPFyaq7PgrHU9pYmLFo+Mp+ilLTTueFc9qUzbnNBcE6Hh0AyMErHY8eThQASfcm4wQ4qDJIqAcSqb1LNNlnHmcyD9Trx3LGxPQeTaWTpCEX8Ox0h3QZfV8gnDEbkpqOQYxHG3y8mUB2RYO+U7ss5WgAYPwj9J83k6JkmYb9SUdT6lr4j6e1RcXCgzT5BGg4yVvTtvCIiscT1/224JaGysJ1gts4J23haEGI4dzDqP/0tIWJlHqAb7ys7fWfDXfihXPAbgknVC+oeEo52YAAuD4z8md2hqnC2BGdE0kDBVkr7ghXPfz+YVCYS9kW/551uisM9cTOMlP7tZ9Wxl1P5LaKfYyNaetgZHrGY7yS/U6j7yNq3XsJMFniQcjvUp+Srca9IpqYRoyfgyHzFpdrlEeq+Z2yCTyV/Kw63LY94dGDBz1K+r5ki5XTyaR5UEMx1OLP+vtms1PPvW4Du3m2QIVumQQ5ZXmahwGdyMNHOSO59cufRC/baKUa+snF4An/7fFY7gK/myUUHz0NegiE+v3X+BkW/Bm8zdh+wkXXRoWScdTQiaeXKixY0+l4Sq0YnCsbqsR6362QY1tcwrneh763dAKPrrdrejf2j5tMBw6dCFOR7wBTvoXXadW5eFML6Dv6xF7EI3dR8XY1WDCSdr6UGsCWFLGlF6nbDFxqOUtCUWfaawE6Hix4uZgioDVjlc9CalUvq4UZkoCoQhoTlU913B2qMvoeZygN/xHwM6+uF1LQOdZW5PwLT+GT14B6qI1+YQjaql5OsiWDmRb580aDvl5uLM/1mw72+y2RR/THHk7xRZPiFkP6XhqSN5OUSSYJp6A1Ve1iaefYgONOd6JH5/9fLG+7Kd4LmIzXec9uK3mNb3YdDDmeCMvba0xUsIYfe3FnTWF3IiUQOF0//jFmeq0UnwXryKfUZuxpsYcT1p5cFVGFA7+p2pw15JlV0gHLJweKlULmQlNQDKVId99QYfqbPSNR8TQ9h61GXtq1PGktUfvXjLugLrl+e5z5Sdkq2H4+cfn6vXMexMYffWJRVV4yDilB3+TEWd23+UsjnXbuOMpa+XqJ6Nb6PnMbUcUyMLQ8ZPvPPXAAje5tJadevrm5YVT/UXFqGvpV95yYyEdTkYbgjEt+laKKXuiDiR/4YfFvId360We+dKpY5/Pz5jr+9Vvz84sriwc2nFPfv7HN/hVcXA7Xowuqk8zu7eauTL+b2Fb63i1iDLi/PV/F12XfKy22MdWaWykUDz4ysHSv3/+qZ4bn+j30cSoyMC2NWt6lt37YHbGhfNznd1N/6TzzL4nxejOtU3ZQMdrAlfX0qvFrHW/EPk572uilT/R4vDxghg+chwfxX8z09F9LDd70atj+/5RkK2Lx/ae/TxabgRvEGeqO29+3qWzpEzngk/miv07r66UyudVOrsX5WZeND3XNb0qJ2WiCKWhvWLk5ZtFaSDczQA6XgSzkZ29UMzdsEtke3pFJmvNKWxgyyrlgiiP9Ivh5/CrzfJI4H68GppwPGPv/HuBCFNXPtEnDt96/ngXHYtceursER0LrhSd779KTFu6UuTnLnERiqeoePJ1MbZniygc/psoHt4BxxpfVGsGz8+v2UzMRuTLv18yjS4u/PbjJefqeF4NmqzLzsZn81v8T6zicDwTK177H4uadBaK20GAjmfHPKROCzpe6qbcDoPpeHbMQ+q0oOOlbsrtMJiOZ8c8pE4LOl7qptwOg+l4dsxD6rSg46Vuyu0w2JzjVcQeOxCkW4viIbHRBAFjj8yksa1+bMZHZo1dysTjMqmVuRUPgy/cGv8LiI2nIh0S5bKomHI6Sdio40kFpPMBwr0yzxAPgbFDYlXvF83OvdFDrRPzgeXi0UxWrHOWB93mobaWXGVI3DfrVvH92lIzW1Y5no5g/wpRyGZEqPcF6Xh4xa8iCr2rRKfO1oa8tY6nw+n7gtgscuImvcxPPq2OVx4Qm3pvF7f4YWRKpi0czwmnb4W4E79RewhnKec46/TtNDheuSgK5T5x/5xviwd0223Pt6XjuUF9e6WYly+JH2BlvE3VJ83xikfFM9lhcUfvd8UBZWO7polxvEYT0P8NcUVmmlidqYjrsVJ+sJG8n/qoXn2XtzZEUezJFMWzoyfF4wsfFm/4Gb+dZVLjeGEmqXLf+K0HdetJpeNdvnni7L3IwTNi/B88/3dAlFdtFfz+SxjobEsCJEACJEACJEACJEACJEACJEACJEACJEACJEACJEACJEACJEACJEACJEACJEACJEACJEACJEACJEACJEACJEACJEACJEACJEACJEACJEACJEACJEACJEACJEACJNBGBP4Pta7qWmho+60AAAAASUVORK5CYII=;" parent="O73Z84jBXJhSjB4GHqbN-28" vertex="1">
          <mxGeometry x="30" y="35" width="50" height="50" as="geometry" />
        </mxCell>
        <mxCell id="O73Z84jBXJhSjB4GHqbN-33" value="" style="group" parent="-H8vIctdZyZoKpkkq821-1" vertex="1" connectable="0">
          <mxGeometry x="10" y="270" width="110" height="100" as="geometry" />
        </mxCell>
        <mxCell id="O73Z84jBXJhSjB4GHqbN-34" value="" style="rounded=0;whiteSpace=wrap;html=1;" parent="O73Z84jBXJhSjB4GHqbN-33" vertex="1">
          <mxGeometry y="30" width="110" height="60" as="geometry" />
        </mxCell>
        <mxCell id="O73Z84jBXJhSjB4GHqbN-35" value="DB" style="rounded=0;whiteSpace=wrap;html=1;fillColor=#000000;fontColor=#FFFFFF;fontSize=16;" parent="O73Z84jBXJhSjB4GHqbN-33" vertex="1">
          <mxGeometry width="110" height="30" as="geometry" />
        </mxCell>
        <mxCell id="O73Z84jBXJhSjB4GHqbN-36" value="" style="rounded=0;whiteSpace=wrap;html=1;fillColor=#595959;fontColor=#FFFFFF;align=left;verticalAlign=top;" parent="O73Z84jBXJhSjB4GHqbN-33" vertex="1">
          <mxGeometry x="10" y="40" width="90" height="40" as="geometry" />
        </mxCell>
        <mxCell id="O73Z84jBXJhSjB4GHqbN-37" value="" style="shape=image;verticalLabelPosition=bottom;labelBackgroundColor=default;verticalAlign=top;aspect=fixed;imageAspect=0;image=data:image/png,iVBORw0KGgoAAAANSUhEUgAAAJ4AAACeCAYAAADDhbN7AAAAAXNSR0IArs4c6QAAAIRlWElmTU0AKgAAAAgABQESAAMAAAABAAEAAAEaAAUAAAABAAAASgEbAAUAAAABAAAAUgEoAAMAAAABAAIAAIdpAAQAAAABAAAAWgAAAAAAAADcAAAAAQAAANwAAAABAAOgAQADAAAAAQABAACgAgAEAAAAAQAAAJ6gAwAEAAAAAQAAAJ4AAAAAeonODQAAAAlwSFlzAAAh1QAAIdUBBJy0nQAADL5JREFUeAHtnXuMXUUdx+c+drfsltJuiy2tFajEaknFAJr4akIEQjABtQ9joUQLklRBAwaVxD8QoUr5Q/4RIyg0to2RWlOBRIkkiI+ioTYUBdsA0nbb7Yt23e2W3e59+Z3dndu5Z88999xzzj0z95zvJLMzZ+Y3M7/fZ35nzvOeFYKBBEiABEiABEiABEiABEiABEiABEiABEiABEiABEiABEiABEiABEiABEiABEiABEiABEiABEiABEiABEiABEiABEiABEiABEiABEiABEiABEiABEiABEiABEiABEiABEiABEIRyIRqnZLGlUpFcspOmqtSN+vLk4XlTCZTcRNg2QSB1DgenGdxuVz+Ksy+KpvNXm6bA5RKpR25XG479PolnPaobfpRnzoE4FgXYPIeQ5rYAPvuh3Gz6yBoq+K2XPEA/06sXg9h5TonCtroq4h+NqK/l5DKOCQjVp5TSEMF6HouOpiBOAvx0xjrSoyzNlSnWmP0dwr9rYGuv9OKmY2CAPb0Tc0uY2hzDPGnaPeBKHSIuw/ovVjajTgQwPb1ceubmPEAfMwPcMjth1xXYgz3YQjsnVYsFn05JPiM+ugy3SKA9BMvZ0P9btTLwxaDgwC4XAI+R7z4oe5rjmbp3gSQ77gBA8giyiM5j0sbYXC7GPzKblxR9om08Zhibx0wi6cIsiAwATBe5uQsnTJwhxE0NHpVK2HoNuDKzKg+ui5JzAO3vPld0m0zxdzrLryuX+R57HGvq04B5GlTAJQOaUjBWD5RyeAWTPWCA+zvNmG7sRUGBldXOzpd/FNvmr+xFS9+1BzRJgJWOB4Ou7+yCUrSdQHvfaZttOJQqyDwkKtItCbF4bUTPZ9x9m6CuxUrngIhzzsmQ4cqYxqeAJguklzR0xSnC997sB6scDxcZT3iUH/8cZm81wRe73XUcdMHAXC7TDqbDBB/S28Crjfp26nKTyCZ+KsMhwP+US935gFsQMkynUoAfOSTnroB9XepVrqQKktF6mU46jr0eq88YG5GvbFzVROTBXtnYyd91ouLqgOf0246qnqZutUntqwZwwFvjy7fRP52yM5pR4jQ+z2I32vC1qoonPK5RjZXhZFpJNuKemMrhTRcGdTsVRWafhltn1Ttw6SYpP+h/duIr+CFyheR7oI+/wrTp1tb6HwZyj+CdAXiAuQvxngz3WQDlK2AztuaaQcdAvNvZpx6sm3peG7GgON8xI2YgGvc6pNQBvu2wb5bEN8Naw/6Mup4YfUP3F4arkLgTnw2xDh5xF4csjeoMW1Mod966DUTMefTtMBiuv2BOwnRMDErXggGvppioqZBcO6k8EUujfbJMqxG+13qrCuSjqeUgs6x+0HsAypjTRuu9Ehrapq/FTeQ0zr5ababjpfm2Tdou9WOJw8HMuCk+7hBRhy6BQSsdjxlL+53zZlwwZq/C1U90/YjYLvjef3o50D74abGxgnoa5dfZXDIrfk2it92lJtKIAj/qb0EL+HtlODs2rqldDxlgIn7eLYfahUbpgkjYIXjYec7L2FcrTYHvD9ktYKtVE4u9XrA+dtrrRyPfU8QAOdBnbvMp4qN03i1DTCbUwUiJmPxdam/KsbONCYV7BhGNx7OVu/jMvy9RYjpAuNrdc4qD96jKi/TEEO0X1On4djO6WXOPPbYl9vPyvg1hlN5vq2tNNL5qrJUpF6Go26nXu+RX5UKWHWMBJd1HmyqVXjL+vfOLqqVyDjrEr3t13DswVt02UZ5yA8h/ixJ8GDPZsThRrY76u/xYqDLesklri6o4ZiAR/W2QfLo4yTabUT8EqKRbyRj3I8i3oHVaBvS0AE2/bAZJ9EHbKZdVLKJeHIBiN/CBD6Ilwm6ogJjaz+wcwR2LsfThimHz2Z0lo6n5E08uVBjx57GscdhjCzitZis3+rj2Z7H6vVr6NjSHy3pDGKffAyYiBUvanCYlM/BWa/BSrAEaQ/Sbowx/tFvrDZ1P/4NWfn/MWQYQh9DkD2BdBfSP6GPFyaq7PgrHU9pYmLFo+Mp+ilLTTueFc9qUzbnNBcE6Hh0AyMErHY8eThQASfcm4wQ4qDJIqAcSqb1LNNlnHmcyD9Trx3LGxPQeTaWTpCEX8Ox0h3QZfV8gnDEbkpqOQYxHG3y8mUB2RYO+U7ss5WgAYPwj9J83k6JkmYb9SUdT6lr4j6e1RcXCgzT5BGg4yVvTtvCIiscT1/224JaGysJ1gts4J23haEGI4dzDqP/0tIWJlHqAb7ys7fWfDXfihXPAbgknVC+oeEo52YAAuD4z8md2hqnC2BGdE0kDBVkr7ghXPfz+YVCYS9kW/551uisM9cTOMlP7tZ9Wxl1P5LaKfYyNaetgZHrGY7yS/U6j7yNq3XsJMFniQcjvUp+Srca9IpqYRoyfgyHzFpdrlEeq+Z2yCTyV/Kw63LY94dGDBz1K+r5ki5XTyaR5UEMx1OLP+vtms1PPvW4Du3m2QIVumQQ5ZXmahwGdyMNHOSO59cufRC/baKUa+snF4An/7fFY7gK/myUUHz0NegiE+v3X+BkW/Bm8zdh+wkXXRoWScdTQiaeXKixY0+l4Sq0YnCsbqsR6362QY1tcwrneh763dAKPrrdrejf2j5tMBw6dCFOR7wBTvoXXadW5eFML6Dv6xF7EI3dR8XY1WDCSdr6UGsCWFLGlF6nbDFxqOUtCUWfaawE6Hix4uZgioDVjlc9CalUvq4UZkoCoQhoTlU913B2qMvoeZygN/xHwM6+uF1LQOdZW5PwLT+GT14B6qI1+YQjaql5OsiWDmRb580aDvl5uLM/1mw72+y2RR/THHk7xRZPiFkP6XhqSN5OUSSYJp6A1Ve1iaefYgONOd6JH5/9fLG+7Kd4LmIzXec9uK3mNb3YdDDmeCMvba0xUsIYfe3FnTWF3IiUQOF0//jFmeq0UnwXryKfUZuxpsYcT1p5cFVGFA7+p2pw15JlV0gHLJweKlULmQlNQDKVId99QYfqbPSNR8TQ9h61GXtq1PGktUfvXjLugLrl+e5z5Sdkq2H4+cfn6vXMexMYffWJRVV4yDilB3+TEWd23+UsjnXbuOMpa+XqJ6Nb6PnMbUcUyMLQ8ZPvPPXAAje5tJadevrm5YVT/UXFqGvpV95yYyEdTkYbgjEt+laKKXuiDiR/4YfFvId360We+dKpY5/Pz5jr+9Vvz84sriwc2nFPfv7HN/hVcXA7Xowuqk8zu7eauTL+b2Fb63i1iDLi/PV/F12XfKy22MdWaWykUDz4ysHSv3/+qZ4bn+j30cSoyMC2NWt6lt37YHbGhfNznd1N/6TzzL4nxejOtU3ZQMdrAlfX0qvFrHW/EPk572uilT/R4vDxghg+chwfxX8z09F9LDd70atj+/5RkK2Lx/ae/TxabgRvEGeqO29+3qWzpEzngk/miv07r66UyudVOrsX5WZeND3XNb0qJ2WiCKWhvWLk5ZtFaSDczQA6XgSzkZ29UMzdsEtke3pFJmvNKWxgyyrlgiiP9Ivh5/CrzfJI4H68GppwPGPv/HuBCFNXPtEnDt96/ngXHYtceursER0LrhSd779KTFu6UuTnLnERiqeoePJ1MbZniygc/psoHt4BxxpfVGsGz8+v2UzMRuTLv18yjS4u/PbjJefqeF4NmqzLzsZn81v8T6zicDwTK177H4uadBaK20GAjmfHPKROCzpe6qbcDoPpeHbMQ+q0oOOlbsrtMJiOZ8c8pE4LOl7qptwOg+l4dsxD6rSg46Vuyu0w2JzjVcQeOxCkW4viIbHRBAFjj8yksa1+bMZHZo1dysTjMqmVuRUPgy/cGv8LiI2nIh0S5bKomHI6Sdio40kFpPMBwr0yzxAPgbFDYlXvF83OvdFDrRPzgeXi0UxWrHOWB93mobaWXGVI3DfrVvH92lIzW1Y5no5g/wpRyGZEqPcF6Xh4xa8iCr2rRKfO1oa8tY6nw+n7gtgscuImvcxPPq2OVx4Qm3pvF7f4YWRKpi0czwmnb4W4E79RewhnKec46/TtNDheuSgK5T5x/5xviwd0223Pt6XjuUF9e6WYly+JH2BlvE3VJ83xikfFM9lhcUfvd8UBZWO7polxvEYT0P8NcUVmmlidqYjrsVJ+sJG8n/qoXn2XtzZEUezJFMWzoyfF4wsfFm/4Gb+dZVLjeGEmqXLf+K0HdetJpeNdvnni7L3IwTNi/B88/3dAlFdtFfz+SxjobEsCJEACJEACJEACJEACJEACJEACJEACJEACJEACJEACJEACJEACJEACJEACJEACJEACJEACJEACJEACJEACJEACJEACJEACJEACJEACJEACJEACJEACJEACJEACJNBGBP4Pta7qWmho+60AAAAASUVORK5CYII=;" parent="O73Z84jBXJhSjB4GHqbN-33" vertex="1">
          <mxGeometry x="30" y="35" width="50" height="50" as="geometry" />
        </mxCell>
        <mxCell id="O73Z84jBXJhSjB4GHqbN-38" style="edgeStyle=none;rounded=0;orthogonalLoop=1;jettySize=auto;html=1;exitX=1;exitY=0.5;exitDx=0;exitDy=0;startArrow=oval;startFill=1;endArrow=block;endFill=1;strokeWidth=5;strokeColor=#F0AB00;entryX=0;entryY=0.5;entryDx=0;entryDy=0;" parent="-H8vIctdZyZoKpkkq821-1" source="O73Z84jBXJhSjB4GHqbN-31" target="O73Z84jBXJhSjB4GHqbN-10" edge="1">
          <mxGeometry relative="1" as="geometry">
            <mxPoint x="680" y="361" as="sourcePoint" />
            <mxPoint x="470" y="280" as="targetPoint" />
            <Array as="points">
              <mxPoint x="140" y="210" />
              <mxPoint x="140" y="270" />
            </Array>
          </mxGeometry>
        </mxCell>
        <mxCell id="O73Z84jBXJhSjB4GHqbN-39" style="edgeStyle=none;rounded=0;orthogonalLoop=1;jettySize=auto;html=1;startArrow=oval;startFill=1;endArrow=block;endFill=1;strokeWidth=5;strokeColor=#F0AB00;exitX=1;exitY=0.5;exitDx=0;exitDy=0;" parent="-H8vIctdZyZoKpkkq821-1" source="O73Z84jBXJhSjB4GHqbN-36" edge="1">
          <mxGeometry relative="1" as="geometry">
            <mxPoint x="430" y="270" as="sourcePoint" />
            <mxPoint x="180" y="270" as="targetPoint" />
            <Array as="points">
              <mxPoint x="140" y="330" />
              <mxPoint x="140" y="270" />
            </Array>
          </mxGeometry>
        </mxCell>
        <mxCell id="-H8vIctdZyZoKpkkq821-2" value="" style="group" vertex="1" connectable="0" parent="1">
          <mxGeometry x="360" y="40" width="290" height="500" as="geometry" />
        </mxCell>
        <mxCell id="O73Z84jBXJhSjB4GHqbN-1" value="&lt;div&gt;Data Virtualization&lt;/div&gt;" style="rounded=0;whiteSpace=wrap;html=1;fontColor=#FFFFFF;fillColor=#F0AB00;strokeColor=#F0AB00;fontSize=16;shadow=1;" parent="-H8vIctdZyZoKpkkq821-2" vertex="1">
          <mxGeometry width="290" height="60" as="geometry" />
        </mxCell>
        <mxCell id="O73Z84jBXJhSjB4GHqbN-2" value="&lt;div style=&quot;&quot;&gt;&lt;div style=&quot;&quot;&gt;&lt;div&gt;&lt;font color=&quot;#000000&quot;&gt;Provisioning of a virtual data layer by federation of queries to remote data sources without physical data movement.&lt;/font&gt;&lt;/div&gt;&lt;div&gt;&lt;font color=&quot;#000000&quot;&gt;&lt;br&gt;&lt;/font&gt;&lt;/div&gt;&lt;div&gt;&lt;br&gt;&lt;/div&gt;&lt;/div&gt;&lt;/div&gt;" style="rounded=0;whiteSpace=wrap;html=1;fontColor=#FFFFFF;fillColor=#FFFFFF;strokeColor=#feefc9;fontSize=16;shadow=1;align=center;verticalAlign=top;" parent="-H8vIctdZyZoKpkkq821-2" vertex="1">
          <mxGeometry y="60" width="290" height="320" as="geometry" />
        </mxCell>
        <mxCell id="O73Z84jBXJhSjB4GHqbN-12" value="" style="group" parent="-H8vIctdZyZoKpkkq821-2" vertex="1" connectable="0">
          <mxGeometry x="170" y="269" width="110" height="100" as="geometry" />
        </mxCell>
        <mxCell id="O73Z84jBXJhSjB4GHqbN-13" value="" style="rounded=0;whiteSpace=wrap;html=1;" parent="O73Z84jBXJhSjB4GHqbN-12" vertex="1">
          <mxGeometry y="30" width="110" height="60" as="geometry" />
        </mxCell>
        <mxCell id="O73Z84jBXJhSjB4GHqbN-14" value="Data Source" style="rounded=0;whiteSpace=wrap;html=1;fillColor=#000000;fontColor=#FFFFFF;fontSize=16;" parent="O73Z84jBXJhSjB4GHqbN-12" vertex="1">
          <mxGeometry width="110" height="30" as="geometry" />
        </mxCell>
        <mxCell id="O73Z84jBXJhSjB4GHqbN-15" value="" style="rounded=0;whiteSpace=wrap;html=1;fillColor=#595959;fontColor=#FFFFFF;align=left;verticalAlign=top;" parent="O73Z84jBXJhSjB4GHqbN-12" vertex="1">
          <mxGeometry x="10" y="40" width="90" height="40" as="geometry" />
        </mxCell>
        <mxCell id="O73Z84jBXJhSjB4GHqbN-16" value="" style="shape=image;verticalLabelPosition=bottom;labelBackgroundColor=default;verticalAlign=top;aspect=fixed;imageAspect=0;image=data:image/png,iVBORw0KGgoAAAANSUhEUgAAAJ4AAACeCAYAAADDhbN7AAAAAXNSR0IArs4c6QAAAIRlWElmTU0AKgAAAAgABQESAAMAAAABAAEAAAEaAAUAAAABAAAASgEbAAUAAAABAAAAUgEoAAMAAAABAAIAAIdpAAQAAAABAAAAWgAAAAAAAADcAAAAAQAAANwAAAABAAOgAQADAAAAAQABAACgAgAEAAAAAQAAAJ6gAwAEAAAAAQAAAJ4AAAAAeonODQAAAAlwSFlzAAAh1QAAIdUBBJy0nQAADL5JREFUeAHtnXuMXUUdx+c+drfsltJuiy2tFajEaknFAJr4akIEQjABtQ9joUQLklRBAwaVxD8QoUr5Q/4RIyg0to2RWlOBRIkkiI+ioTYUBdsA0nbb7Yt23e2W3e59+Z3dndu5Z88999xzzj0z95zvJLMzZ+Y3M7/fZ35nzvOeFYKBBEiABEiABEiABEiABEiABEiABEiABEiABEiABEiABEiABEiABEiABEiABEiABEiABEiABEiABEiABEiABEiABEiABEiABEiABEiABEiABEiABEiABEiABEiABEiABEiABEIRyIRqnZLGlUpFcspOmqtSN+vLk4XlTCZTcRNg2QSB1DgenGdxuVz+Ksy+KpvNXm6bA5RKpR25XG479PolnPaobfpRnzoE4FgXYPIeQ5rYAPvuh3Gz6yBoq+K2XPEA/06sXg9h5TonCtroq4h+NqK/l5DKOCQjVp5TSEMF6HouOpiBOAvx0xjrSoyzNlSnWmP0dwr9rYGuv9OKmY2CAPb0Tc0uY2hzDPGnaPeBKHSIuw/ovVjajTgQwPb1ceubmPEAfMwPcMjth1xXYgz3YQjsnVYsFn05JPiM+ugy3SKA9BMvZ0P9btTLwxaDgwC4XAI+R7z4oe5rjmbp3gSQ77gBA8giyiM5j0sbYXC7GPzKblxR9om08Zhibx0wi6cIsiAwATBe5uQsnTJwhxE0NHpVK2HoNuDKzKg+ui5JzAO3vPld0m0zxdzrLryuX+R57HGvq04B5GlTAJQOaUjBWD5RyeAWTPWCA+zvNmG7sRUGBldXOzpd/FNvmr+xFS9+1BzRJgJWOB4Ou7+yCUrSdQHvfaZttOJQqyDwkKtItCbF4bUTPZ9x9m6CuxUrngIhzzsmQ4cqYxqeAJguklzR0xSnC997sB6scDxcZT3iUH/8cZm81wRe73XUcdMHAXC7TDqbDBB/S28Crjfp26nKTyCZ+KsMhwP+US935gFsQMkynUoAfOSTnroB9XepVrqQKktF6mU46jr0eq88YG5GvbFzVROTBXtnYyd91ouLqgOf0246qnqZutUntqwZwwFvjy7fRP52yM5pR4jQ+z2I32vC1qoonPK5RjZXhZFpJNuKemMrhTRcGdTsVRWafhltn1Ttw6SYpP+h/duIr+CFyheR7oI+/wrTp1tb6HwZyj+CdAXiAuQvxngz3WQDlK2AztuaaQcdAvNvZpx6sm3peG7GgON8xI2YgGvc6pNQBvu2wb5bEN8Naw/6Mup4YfUP3F4arkLgTnw2xDh5xF4csjeoMW1Mod966DUTMefTtMBiuv2BOwnRMDErXggGvppioqZBcO6k8EUujfbJMqxG+13qrCuSjqeUgs6x+0HsAypjTRuu9Ehrapq/FTeQ0zr5ababjpfm2Tdou9WOJw8HMuCk+7hBRhy6BQSsdjxlL+53zZlwwZq/C1U90/YjYLvjef3o50D74abGxgnoa5dfZXDIrfk2it92lJtKIAj/qb0EL+HtlODs2rqldDxlgIn7eLYfahUbpgkjYIXjYec7L2FcrTYHvD9ktYKtVE4u9XrA+dtrrRyPfU8QAOdBnbvMp4qN03i1DTCbUwUiJmPxdam/KsbONCYV7BhGNx7OVu/jMvy9RYjpAuNrdc4qD96jKi/TEEO0X1On4djO6WXOPPbYl9vPyvg1hlN5vq2tNNL5qrJUpF6Go26nXu+RX5UKWHWMBJd1HmyqVXjL+vfOLqqVyDjrEr3t13DswVt02UZ5yA8h/ixJ8GDPZsThRrY76u/xYqDLesklri6o4ZiAR/W2QfLo4yTabUT8EqKRbyRj3I8i3oHVaBvS0AE2/bAZJ9EHbKZdVLKJeHIBiN/CBD6Ilwm6ogJjaz+wcwR2LsfThimHz2Z0lo6n5E08uVBjx57GscdhjCzitZis3+rj2Z7H6vVr6NjSHy3pDGKffAyYiBUvanCYlM/BWa/BSrAEaQ/Sbowx/tFvrDZ1P/4NWfn/MWQYQh9DkD2BdBfSP6GPFyaq7PgrHU9pYmLFo+Mp+ilLTTueFc9qUzbnNBcE6Hh0AyMErHY8eThQASfcm4wQ4qDJIqAcSqb1LNNlnHmcyD9Trx3LGxPQeTaWTpCEX8Ox0h3QZfV8gnDEbkpqOQYxHG3y8mUB2RYO+U7ss5WgAYPwj9J83k6JkmYb9SUdT6lr4j6e1RcXCgzT5BGg4yVvTtvCIiscT1/224JaGysJ1gts4J23haEGI4dzDqP/0tIWJlHqAb7ys7fWfDXfihXPAbgknVC+oeEo52YAAuD4z8md2hqnC2BGdE0kDBVkr7ghXPfz+YVCYS9kW/551uisM9cTOMlP7tZ9Wxl1P5LaKfYyNaetgZHrGY7yS/U6j7yNq3XsJMFniQcjvUp+Srca9IpqYRoyfgyHzFpdrlEeq+Z2yCTyV/Kw63LY94dGDBz1K+r5ki5XTyaR5UEMx1OLP+vtms1PPvW4Du3m2QIVumQQ5ZXmahwGdyMNHOSO59cufRC/baKUa+snF4An/7fFY7gK/myUUHz0NegiE+v3X+BkW/Bm8zdh+wkXXRoWScdTQiaeXKixY0+l4Sq0YnCsbqsR6362QY1tcwrneh763dAKPrrdrejf2j5tMBw6dCFOR7wBTvoXXadW5eFML6Dv6xF7EI3dR8XY1WDCSdr6UGsCWFLGlF6nbDFxqOUtCUWfaawE6Hix4uZgioDVjlc9CalUvq4UZkoCoQhoTlU913B2qMvoeZygN/xHwM6+uF1LQOdZW5PwLT+GT14B6qI1+YQjaql5OsiWDmRb580aDvl5uLM/1mw72+y2RR/THHk7xRZPiFkP6XhqSN5OUSSYJp6A1Ve1iaefYgONOd6JH5/9fLG+7Kd4LmIzXec9uK3mNb3YdDDmeCMvba0xUsIYfe3FnTWF3IiUQOF0//jFmeq0UnwXryKfUZuxpsYcT1p5cFVGFA7+p2pw15JlV0gHLJweKlULmQlNQDKVId99QYfqbPSNR8TQ9h61GXtq1PGktUfvXjLugLrl+e5z5Sdkq2H4+cfn6vXMexMYffWJRVV4yDilB3+TEWd23+UsjnXbuOMpa+XqJ6Nb6PnMbUcUyMLQ8ZPvPPXAAje5tJadevrm5YVT/UXFqGvpV95yYyEdTkYbgjEt+laKKXuiDiR/4YfFvId360We+dKpY5/Pz5jr+9Vvz84sriwc2nFPfv7HN/hVcXA7Xowuqk8zu7eauTL+b2Fb63i1iDLi/PV/F12XfKy22MdWaWykUDz4ysHSv3/+qZ4bn+j30cSoyMC2NWt6lt37YHbGhfNznd1N/6TzzL4nxejOtU3ZQMdrAlfX0qvFrHW/EPk572uilT/R4vDxghg+chwfxX8z09F9LDd70atj+/5RkK2Lx/ae/TxabgRvEGeqO29+3qWzpEzngk/miv07r66UyudVOrsX5WZeND3XNb0qJ2WiCKWhvWLk5ZtFaSDczQA6XgSzkZ29UMzdsEtke3pFJmvNKWxgyyrlgiiP9Ivh5/CrzfJI4H68GppwPGPv/HuBCFNXPtEnDt96/ngXHYtceursER0LrhSd779KTFu6UuTnLnERiqeoePJ1MbZniygc/psoHt4BxxpfVGsGz8+v2UzMRuTLv18yjS4u/PbjJefqeF4NmqzLzsZn81v8T6zicDwTK177H4uadBaK20GAjmfHPKROCzpe6qbcDoPpeHbMQ+q0oOOlbsrtMJiOZ8c8pE4LOl7qptwOg+l4dsxD6rSg46Vuyu0w2JzjVcQeOxCkW4viIbHRBAFjj8yksa1+bMZHZo1dysTjMqmVuRUPgy/cGv8LiI2nIh0S5bKomHI6Sdio40kFpPMBwr0yzxAPgbFDYlXvF83OvdFDrRPzgeXi0UxWrHOWB93mobaWXGVI3DfrVvH92lIzW1Y5no5g/wpRyGZEqPcF6Xh4xa8iCr2rRKfO1oa8tY6nw+n7gtgscuImvcxPPq2OVx4Qm3pvF7f4YWRKpi0czwmnb4W4E79RewhnKec46/TtNDheuSgK5T5x/5xviwd0223Pt6XjuUF9e6WYly+JH2BlvE3VJ83xikfFM9lhcUfvd8UBZWO7polxvEYT0P8NcUVmmlidqYjrsVJ+sJG8n/qoXn2XtzZEUezJFMWzoyfF4wsfFm/4Gb+dZVLjeGEmqXLf+K0HdetJpeNdvnni7L3IwTNi/B88/3dAlFdtFfz+SxjobEsCJEACJEACJEACJEACJEACJEACJEACJEACJEACJEACJEACJEACJEACJEACJEACJEACJEACJEACJEACJEACJEACJEACJEACJEACJEACJEACJEACJEACJEACJEACJNBGBP4Pta7qWmho+60AAAAASUVORK5CYII=;" parent="O73Z84jBXJhSjB4GHqbN-12" vertex="1">
          <mxGeometry x="30" y="35" width="50" height="50" as="geometry" />
        </mxCell>
        <mxCell id="O73Z84jBXJhSjB4GHqbN-19" value="" style="group" parent="-H8vIctdZyZoKpkkq821-2" vertex="1" connectable="0">
          <mxGeometry x="170" y="149" width="110" height="100" as="geometry" />
        </mxCell>
        <mxCell id="O73Z84jBXJhSjB4GHqbN-20" value="" style="rounded=0;whiteSpace=wrap;html=1;" parent="O73Z84jBXJhSjB4GHqbN-19" vertex="1">
          <mxGeometry y="30" width="110" height="60" as="geometry" />
        </mxCell>
        <mxCell id="O73Z84jBXJhSjB4GHqbN-21" value="Data Source" style="rounded=0;whiteSpace=wrap;html=1;fillColor=#000000;fontColor=#FFFFFF;fontSize=16;" parent="O73Z84jBXJhSjB4GHqbN-19" vertex="1">
          <mxGeometry width="110" height="30" as="geometry" />
        </mxCell>
        <mxCell id="O73Z84jBXJhSjB4GHqbN-22" value="" style="rounded=0;whiteSpace=wrap;html=1;fillColor=#595959;fontColor=#FFFFFF;align=left;verticalAlign=top;" parent="O73Z84jBXJhSjB4GHqbN-19" vertex="1">
          <mxGeometry x="10" y="40" width="90" height="40" as="geometry" />
        </mxCell>
        <mxCell id="O73Z84jBXJhSjB4GHqbN-23" value="" style="shape=image;verticalLabelPosition=bottom;labelBackgroundColor=default;verticalAlign=top;aspect=fixed;imageAspect=0;image=data:image/png,iVBORw0KGgoAAAANSUhEUgAAAJ4AAACeCAYAAADDhbN7AAAAAXNSR0IArs4c6QAAAIRlWElmTU0AKgAAAAgABQESAAMAAAABAAEAAAEaAAUAAAABAAAASgEbAAUAAAABAAAAUgEoAAMAAAABAAIAAIdpAAQAAAABAAAAWgAAAAAAAADcAAAAAQAAANwAAAABAAOgAQADAAAAAQABAACgAgAEAAAAAQAAAJ6gAwAEAAAAAQAAAJ4AAAAAeonODQAAAAlwSFlzAAAh1QAAIdUBBJy0nQAADL5JREFUeAHtnXuMXUUdx+c+drfsltJuiy2tFajEaknFAJr4akIEQjABtQ9joUQLklRBAwaVxD8QoUr5Q/4RIyg0to2RWlOBRIkkiI+ioTYUBdsA0nbb7Yt23e2W3e59+Z3dndu5Z88999xzzj0z95zvJLMzZ+Y3M7/fZ35nzvOeFYKBBEiABEiABEiABEiABEiABEiABEiABEiABEiABEiABEiABEiABEiABEiABEiABEiABEiABEiABEiABEiABEiABEiABEiABEiABEiABEiABEiABEiABEiABEiABEiABEiABEIRyIRqnZLGlUpFcspOmqtSN+vLk4XlTCZTcRNg2QSB1DgenGdxuVz+Ksy+KpvNXm6bA5RKpR25XG479PolnPaobfpRnzoE4FgXYPIeQ5rYAPvuh3Gz6yBoq+K2XPEA/06sXg9h5TonCtroq4h+NqK/l5DKOCQjVp5TSEMF6HouOpiBOAvx0xjrSoyzNlSnWmP0dwr9rYGuv9OKmY2CAPb0Tc0uY2hzDPGnaPeBKHSIuw/ovVjajTgQwPb1ceubmPEAfMwPcMjth1xXYgz3YQjsnVYsFn05JPiM+ugy3SKA9BMvZ0P9btTLwxaDgwC4XAI+R7z4oe5rjmbp3gSQ77gBA8giyiM5j0sbYXC7GPzKblxR9om08Zhibx0wi6cIsiAwATBe5uQsnTJwhxE0NHpVK2HoNuDKzKg+ui5JzAO3vPld0m0zxdzrLryuX+R57HGvq04B5GlTAJQOaUjBWD5RyeAWTPWCA+zvNmG7sRUGBldXOzpd/FNvmr+xFS9+1BzRJgJWOB4Ou7+yCUrSdQHvfaZttOJQqyDwkKtItCbF4bUTPZ9x9m6CuxUrngIhzzsmQ4cqYxqeAJguklzR0xSnC997sB6scDxcZT3iUH/8cZm81wRe73XUcdMHAXC7TDqbDBB/S28Crjfp26nKTyCZ+KsMhwP+US935gFsQMkynUoAfOSTnroB9XepVrqQKktF6mU46jr0eq88YG5GvbFzVROTBXtnYyd91ouLqgOf0246qnqZutUntqwZwwFvjy7fRP52yM5pR4jQ+z2I32vC1qoonPK5RjZXhZFpJNuKemMrhTRcGdTsVRWafhltn1Ttw6SYpP+h/duIr+CFyheR7oI+/wrTp1tb6HwZyj+CdAXiAuQvxngz3WQDlK2AztuaaQcdAvNvZpx6sm3peG7GgON8xI2YgGvc6pNQBvu2wb5bEN8Naw/6Mup4YfUP3F4arkLgTnw2xDh5xF4csjeoMW1Mod966DUTMefTtMBiuv2BOwnRMDErXggGvppioqZBcO6k8EUujfbJMqxG+13qrCuSjqeUgs6x+0HsAypjTRuu9Ehrapq/FTeQ0zr5ababjpfm2Tdou9WOJw8HMuCk+7hBRhy6BQSsdjxlL+53zZlwwZq/C1U90/YjYLvjef3o50D74abGxgnoa5dfZXDIrfk2it92lJtKIAj/qb0EL+HtlODs2rqldDxlgIn7eLYfahUbpgkjYIXjYec7L2FcrTYHvD9ktYKtVE4u9XrA+dtrrRyPfU8QAOdBnbvMp4qN03i1DTCbUwUiJmPxdam/KsbONCYV7BhGNx7OVu/jMvy9RYjpAuNrdc4qD96jKi/TEEO0X1On4djO6WXOPPbYl9vPyvg1hlN5vq2tNNL5qrJUpF6Go26nXu+RX5UKWHWMBJd1HmyqVXjL+vfOLqqVyDjrEr3t13DswVt02UZ5yA8h/ixJ8GDPZsThRrY76u/xYqDLesklri6o4ZiAR/W2QfLo4yTabUT8EqKRbyRj3I8i3oHVaBvS0AE2/bAZJ9EHbKZdVLKJeHIBiN/CBD6Ilwm6ogJjaz+wcwR2LsfThimHz2Z0lo6n5E08uVBjx57GscdhjCzitZis3+rj2Z7H6vVr6NjSHy3pDGKffAyYiBUvanCYlM/BWa/BSrAEaQ/Sbowx/tFvrDZ1P/4NWfn/MWQYQh9DkD2BdBfSP6GPFyaq7PgrHU9pYmLFo+Mp+ilLTTueFc9qUzbnNBcE6Hh0AyMErHY8eThQASfcm4wQ4qDJIqAcSqb1LNNlnHmcyD9Trx3LGxPQeTaWTpCEX8Ox0h3QZfV8gnDEbkpqOQYxHG3y8mUB2RYO+U7ss5WgAYPwj9J83k6JkmYb9SUdT6lr4j6e1RcXCgzT5BGg4yVvTtvCIiscT1/224JaGysJ1gts4J23haEGI4dzDqP/0tIWJlHqAb7ys7fWfDXfihXPAbgknVC+oeEo52YAAuD4z8md2hqnC2BGdE0kDBVkr7ghXPfz+YVCYS9kW/551uisM9cTOMlP7tZ9Wxl1P5LaKfYyNaetgZHrGY7yS/U6j7yNq3XsJMFniQcjvUp+Srca9IpqYRoyfgyHzFpdrlEeq+Z2yCTyV/Kw63LY94dGDBz1K+r5ki5XTyaR5UEMx1OLP+vtms1PPvW4Du3m2QIVumQQ5ZXmahwGdyMNHOSO59cufRC/baKUa+snF4An/7fFY7gK/myUUHz0NegiE+v3X+BkW/Bm8zdh+wkXXRoWScdTQiaeXKixY0+l4Sq0YnCsbqsR6362QY1tcwrneh763dAKPrrdrejf2j5tMBw6dCFOR7wBTvoXXadW5eFML6Dv6xF7EI3dR8XY1WDCSdr6UGsCWFLGlF6nbDFxqOUtCUWfaawE6Hix4uZgioDVjlc9CalUvq4UZkoCoQhoTlU913B2qMvoeZygN/xHwM6+uF1LQOdZW5PwLT+GT14B6qI1+YQjaql5OsiWDmRb580aDvl5uLM/1mw72+y2RR/THHk7xRZPiFkP6XhqSN5OUSSYJp6A1Ve1iaefYgONOd6JH5/9fLG+7Kd4LmIzXec9uK3mNb3YdDDmeCMvba0xUsIYfe3FnTWF3IiUQOF0//jFmeq0UnwXryKfUZuxpsYcT1p5cFVGFA7+p2pw15JlV0gHLJweKlULmQlNQDKVId99QYfqbPSNR8TQ9h61GXtq1PGktUfvXjLugLrl+e5z5Sdkq2H4+cfn6vXMexMYffWJRVV4yDilB3+TEWd23+UsjnXbuOMpa+XqJ6Nb6PnMbUcUyMLQ8ZPvPPXAAje5tJadevrm5YVT/UXFqGvpV95yYyEdTkYbgjEt+laKKXuiDiR/4YfFvId360We+dKpY5/Pz5jr+9Vvz84sriwc2nFPfv7HN/hVcXA7Xowuqk8zu7eauTL+b2Fb63i1iDLi/PV/F12XfKy22MdWaWykUDz4ysHSv3/+qZ4bn+j30cSoyMC2NWt6lt37YHbGhfNznd1N/6TzzL4nxejOtU3ZQMdrAlfX0qvFrHW/EPk572uilT/R4vDxghg+chwfxX8z09F9LDd70atj+/5RkK2Lx/ae/TxabgRvEGeqO29+3qWzpEzngk/miv07r66UyudVOrsX5WZeND3XNb0qJ2WiCKWhvWLk5ZtFaSDczQA6XgSzkZ29UMzdsEtke3pFJmvNKWxgyyrlgiiP9Ivh5/CrzfJI4H68GppwPGPv/HuBCFNXPtEnDt96/ngXHYtceursER0LrhSd779KTFu6UuTnLnERiqeoePJ1MbZniygc/psoHt4BxxpfVGsGz8+v2UzMRuTLv18yjS4u/PbjJefqeF4NmqzLzsZn81v8T6zicDwTK177H4uadBaK20GAjmfHPKROCzpe6qbcDoPpeHbMQ+q0oOOlbsrtMJiOZ8c8pE4LOl7qptwOg+l4dsxD6rSg46Vuyu0w2JzjVcQeOxCkW4viIbHRBAFjj8yksa1+bMZHZo1dysTjMqmVuRUPgy/cGv8LiI2nIh0S5bKomHI6Sdio40kFpPMBwr0yzxAPgbFDYlXvF83OvdFDrRPzgeXi0UxWrHOWB93mobaWXGVI3DfrVvH92lIzW1Y5no5g/wpRyGZEqPcF6Xh4xa8iCr2rRKfO1oa8tY6nw+n7gtgscuImvcxPPq2OVx4Qm3pvF7f4YWRKpi0czwmnb4W4E79RewhnKec46/TtNDheuSgK5T5x/5xviwd0223Pt6XjuUF9e6WYly+JH2BlvE3VJ83xikfFM9lhcUfvd8UBZWO7polxvEYT0P8NcUVmmlidqYjrsVJ+sJG8n/qoXn2XtzZEUezJFMWzoyfF4wsfFm/4Gb+dZVLjeGEmqXLf+K0HdetJpeNdvnni7L3IwTNi/B88/3dAlFdtFfz+SxjobEsCJEACJEACJEACJEACJEACJEACJEACJEACJEACJEACJEACJEACJEACJEACJEACJEACJEACJEACJEACJEACJEACJEACJEACJEACJEACJEACJEACJEACJEACJEACJNBGBP4Pta7qWmho+60AAAAASUVORK5CYII=;" parent="O73Z84jBXJhSjB4GHqbN-19" vertex="1">
          <mxGeometry x="29.5" y="35" width="50" height="50" as="geometry" />
        </mxCell>
        <mxCell id="O73Z84jBXJhSjB4GHqbN-25" value="&lt;div style=&quot;&quot;&gt;&lt;div style=&quot;&quot;&gt;&lt;div style=&quot;&quot;&gt;&lt;u&gt;Example&lt;/u&gt;: Lookup of shared master data from various data sources, e.g. Virtual data access in SAP HANA to remote data sources.&lt;/div&gt;&lt;/div&gt;&lt;/div&gt;" style="rounded=0;whiteSpace=wrap;html=1;fontColor=#000000;fillColor=#FEEFC9;strokeColor=#FEEFC9;align=left;verticalAlign=top;fontSize=14;" parent="-H8vIctdZyZoKpkkq821-2" vertex="1">
          <mxGeometry y="400" width="290" height="100" as="geometry" />
        </mxCell>
        <mxCell id="O73Z84jBXJhSjB4GHqbN-40" value="" style="rounded=0;whiteSpace=wrap;html=1;" parent="-H8vIctdZyZoKpkkq821-2" vertex="1">
          <mxGeometry x="10" y="240" width="110" height="60" as="geometry" />
        </mxCell>
        <mxCell id="O73Z84jBXJhSjB4GHqbN-41" value="Virtual Data Layer" style="rounded=0;whiteSpace=wrap;html=1;fillColor=#000000;fontColor=#FFFFFF;fontSize=16;" parent="-H8vIctdZyZoKpkkq821-2" vertex="1">
          <mxGeometry x="10" y="200" width="110" height="40" as="geometry" />
        </mxCell>
        <mxCell id="O73Z84jBXJhSjB4GHqbN-42" value="" style="rounded=0;whiteSpace=wrap;html=1;fillColor=#595959;fontColor=#FFFFFF;align=left;verticalAlign=top;" parent="-H8vIctdZyZoKpkkq821-2" vertex="1">
          <mxGeometry x="20" y="250" width="90" height="40" as="geometry" />
        </mxCell>
        <mxCell id="O73Z84jBXJhSjB4GHqbN-43" value="" style="shape=image;verticalLabelPosition=bottom;labelBackgroundColor=default;verticalAlign=top;aspect=fixed;imageAspect=0;image=data:image/png,iVBORw0KGgoAAAANSUhEUgAAAJ4AAACeCAYAAADDhbN7AAAAAXNSR0IArs4c6QAAAIRlWElmTU0AKgAAAAgABQESAAMAAAABAAEAAAEaAAUAAAABAAAASgEbAAUAAAABAAAAUgEoAAMAAAABAAIAAIdpAAQAAAABAAAAWgAAAAAAAADcAAAAAQAAANwAAAABAAOgAQADAAAAAQABAACgAgAEAAAAAQAAAJ6gAwAEAAAAAQAAAJ4AAAAAeonODQAAAAlwSFlzAAAh1QAAIdUBBJy0nQAADL5JREFUeAHtnXuMXUUdx+c+drfsltJuiy2tFajEaknFAJr4akIEQjABtQ9joUQLklRBAwaVxD8QoUr5Q/4RIyg0to2RWlOBRIkkiI+ioTYUBdsA0nbb7Yt23e2W3e59+Z3dndu5Z88999xzzj0z95zvJLMzZ+Y3M7/fZ35nzvOeFYKBBEiABEiABEiABEiABEiABEiABEiABEiABEiABEiABEiABEiABEiABEiABEiABEiABEiABEiABEiABEiABEiABEiABEiABEiABEiABEiABEiABEiABEiABEiABEiABEiABEIRyIRqnZLGlUpFcspOmqtSN+vLk4XlTCZTcRNg2QSB1DgenGdxuVz+Ksy+KpvNXm6bA5RKpR25XG479PolnPaobfpRnzoE4FgXYPIeQ5rYAPvuh3Gz6yBoq+K2XPEA/06sXg9h5TonCtroq4h+NqK/l5DKOCQjVp5TSEMF6HouOpiBOAvx0xjrSoyzNlSnWmP0dwr9rYGuv9OKmY2CAPb0Tc0uY2hzDPGnaPeBKHSIuw/ovVjajTgQwPb1ceubmPEAfMwPcMjth1xXYgz3YQjsnVYsFn05JPiM+ugy3SKA9BMvZ0P9btTLwxaDgwC4XAI+R7z4oe5rjmbp3gSQ77gBA8giyiM5j0sbYXC7GPzKblxR9om08Zhibx0wi6cIsiAwATBe5uQsnTJwhxE0NHpVK2HoNuDKzKg+ui5JzAO3vPld0m0zxdzrLryuX+R57HGvq04B5GlTAJQOaUjBWD5RyeAWTPWCA+zvNmG7sRUGBldXOzpd/FNvmr+xFS9+1BzRJgJWOB4Ou7+yCUrSdQHvfaZttOJQqyDwkKtItCbF4bUTPZ9x9m6CuxUrngIhzzsmQ4cqYxqeAJguklzR0xSnC997sB6scDxcZT3iUH/8cZm81wRe73XUcdMHAXC7TDqbDBB/S28Crjfp26nKTyCZ+KsMhwP+US935gFsQMkynUoAfOSTnroB9XepVrqQKktF6mU46jr0eq88YG5GvbFzVROTBXtnYyd91ouLqgOf0246qnqZutUntqwZwwFvjy7fRP52yM5pR4jQ+z2I32vC1qoonPK5RjZXhZFpJNuKemMrhTRcGdTsVRWafhltn1Ttw6SYpP+h/duIr+CFyheR7oI+/wrTp1tb6HwZyj+CdAXiAuQvxngz3WQDlK2AztuaaQcdAvNvZpx6sm3peG7GgON8xI2YgGvc6pNQBvu2wb5bEN8Naw/6Mup4YfUP3F4arkLgTnw2xDh5xF4csjeoMW1Mod966DUTMefTtMBiuv2BOwnRMDErXggGvppioqZBcO6k8EUujfbJMqxG+13qrCuSjqeUgs6x+0HsAypjTRuu9Ehrapq/FTeQ0zr5ababjpfm2Tdou9WOJw8HMuCk+7hBRhy6BQSsdjxlL+53zZlwwZq/C1U90/YjYLvjef3o50D74abGxgnoa5dfZXDIrfk2it92lJtKIAj/qb0EL+HtlODs2rqldDxlgIn7eLYfahUbpgkjYIXjYec7L2FcrTYHvD9ktYKtVE4u9XrA+dtrrRyPfU8QAOdBnbvMp4qN03i1DTCbUwUiJmPxdam/KsbONCYV7BhGNx7OVu/jMvy9RYjpAuNrdc4qD96jKi/TEEO0X1On4djO6WXOPPbYl9vPyvg1hlN5vq2tNNL5qrJUpF6Go26nXu+RX5UKWHWMBJd1HmyqVXjL+vfOLqqVyDjrEr3t13DswVt02UZ5yA8h/ixJ8GDPZsThRrY76u/xYqDLesklri6o4ZiAR/W2QfLo4yTabUT8EqKRbyRj3I8i3oHVaBvS0AE2/bAZJ9EHbKZdVLKJeHIBiN/CBD6Ilwm6ogJjaz+wcwR2LsfThimHz2Z0lo6n5E08uVBjx57GscdhjCzitZis3+rj2Z7H6vVr6NjSHy3pDGKffAyYiBUvanCYlM/BWa/BSrAEaQ/Sbowx/tFvrDZ1P/4NWfn/MWQYQh9DkD2BdBfSP6GPFyaq7PgrHU9pYmLFo+Mp+ilLTTueFc9qUzbnNBcE6Hh0AyMErHY8eThQASfcm4wQ4qDJIqAcSqb1LNNlnHmcyD9Trx3LGxPQeTaWTpCEX8Ox0h3QZfV8gnDEbkpqOQYxHG3y8mUB2RYO+U7ss5WgAYPwj9J83k6JkmYb9SUdT6lr4j6e1RcXCgzT5BGg4yVvTtvCIiscT1/224JaGysJ1gts4J23haEGI4dzDqP/0tIWJlHqAb7ys7fWfDXfihXPAbgknVC+oeEo52YAAuD4z8md2hqnC2BGdE0kDBVkr7ghXPfz+YVCYS9kW/551uisM9cTOMlP7tZ9Wxl1P5LaKfYyNaetgZHrGY7yS/U6j7yNq3XsJMFniQcjvUp+Srca9IpqYRoyfgyHzFpdrlEeq+Z2yCTyV/Kw63LY94dGDBz1K+r5ki5XTyaR5UEMx1OLP+vtms1PPvW4Du3m2QIVumQQ5ZXmahwGdyMNHOSO59cufRC/baKUa+snF4An/7fFY7gK/myUUHz0NegiE+v3X+BkW/Bm8zdh+wkXXRoWScdTQiaeXKixY0+l4Sq0YnCsbqsR6362QY1tcwrneh763dAKPrrdrejf2j5tMBw6dCFOR7wBTvoXXadW5eFML6Dv6xF7EI3dR8XY1WDCSdr6UGsCWFLGlF6nbDFxqOUtCUWfaawE6Hix4uZgioDVjlc9CalUvq4UZkoCoQhoTlU913B2qMvoeZygN/xHwM6+uF1LQOdZW5PwLT+GT14B6qI1+YQjaql5OsiWDmRb580aDvl5uLM/1mw72+y2RR/THHk7xRZPiFkP6XhqSN5OUSSYJp6A1Ve1iaefYgONOd6JH5/9fLG+7Kd4LmIzXec9uK3mNb3YdDDmeCMvba0xUsIYfe3FnTWF3IiUQOF0//jFmeq0UnwXryKfUZuxpsYcT1p5cFVGFA7+p2pw15JlV0gHLJweKlULmQlNQDKVId99QYfqbPSNR8TQ9h61GXtq1PGktUfvXjLugLrl+e5z5Sdkq2H4+cfn6vXMexMYffWJRVV4yDilB3+TEWd23+UsjnXbuOMpa+XqJ6Nb6PnMbUcUyMLQ8ZPvPPXAAje5tJadevrm5YVT/UXFqGvpV95yYyEdTkYbgjEt+laKKXuiDiR/4YfFvId360We+dKpY5/Pz5jr+9Vvz84sriwc2nFPfv7HN/hVcXA7Xowuqk8zu7eauTL+b2Fb63i1iDLi/PV/F12XfKy22MdWaWykUDz4ysHSv3/+qZ4bn+j30cSoyMC2NWt6lt37YHbGhfNznd1N/6TzzL4nxejOtU3ZQMdrAlfX0qvFrHW/EPk572uilT/R4vDxghg+chwfxX8z09F9LDd70atj+/5RkK2Lx/ae/TxabgRvEGeqO29+3qWzpEzngk/miv07r66UyudVOrsX5WZeND3XNb0qJ2WiCKWhvWLk5ZtFaSDczQA6XgSzkZ29UMzdsEtke3pFJmvNKWxgyyrlgiiP9Ivh5/CrzfJI4H68GppwPGPv/HuBCFNXPtEnDt96/ngXHYtceursER0LrhSd779KTFu6UuTnLnERiqeoePJ1MbZniygc/psoHt4BxxpfVGsGz8+v2UzMRuTLv18yjS4u/PbjJefqeF4NmqzLzsZn81v8T6zicDwTK177H4uadBaK20GAjmfHPKROCzpe6qbcDoPpeHbMQ+q0oOOlbsrtMJiOZ8c8pE4LOl7qptwOg+l4dsxD6rSg46Vuyu0w2JzjVcQeOxCkW4viIbHRBAFjj8yksa1+bMZHZo1dysTjMqmVuRUPgy/cGv8LiI2nIh0S5bKomHI6Sdio40kFpPMBwr0yzxAPgbFDYlXvF83OvdFDrRPzgeXi0UxWrHOWB93mobaWXGVI3DfrVvH92lIzW1Y5no5g/wpRyGZEqPcF6Xh4xa8iCr2rRKfO1oa8tY6nw+n7gtgscuImvcxPPq2OVx4Qm3pvF7f4YWRKpi0czwmnb4W4E79RewhnKec46/TtNDheuSgK5T5x/5xviwd0223Pt6XjuUF9e6WYly+JH2BlvE3VJ83xikfFM9lhcUfvd8UBZWO7polxvEYT0P8NcUVmmlidqYjrsVJ+sJG8n/qoXn2XtzZEUezJFMWzoyfF4wsfFm/4Gb+dZVLjeGEmqXLf+K0HdetJpeNdvnni7L3IwTNi/B88/3dAlFdtFfz+SxjobEsCJEACJEACJEACJEACJEACJEACJEACJEACJEACJEACJEACJEACJEACJEACJEACJEACJEACJEACJEACJEACJEACJEACJEACJEACJEACJEACJEACJEACJEACJEACJNBGBP4Pta7qWmho+60AAAAASUVORK5CYII=;" parent="-H8vIctdZyZoKpkkq821-2" vertex="1">
          <mxGeometry x="40" y="245" width="50" height="50" as="geometry" />
        </mxCell>
        <mxCell id="O73Z84jBXJhSjB4GHqbN-44" style="edgeStyle=none;rounded=0;orthogonalLoop=1;jettySize=auto;html=1;exitX=1;exitY=0.25;exitDx=0;exitDy=0;startArrow=oval;startFill=1;endArrow=block;endFill=1;strokeWidth=4;strokeColor=#F0AB00;entryX=0;entryY=0.5;entryDx=0;entryDy=0;dashed=1;dashPattern=1 1;" parent="-H8vIctdZyZoKpkkq821-2" source="O73Z84jBXJhSjB4GHqbN-42" target="O73Z84jBXJhSjB4GHqbN-22" edge="1">
          <mxGeometry relative="1" as="geometry">
            <mxPoint x="-200" y="220" as="sourcePoint" />
            <mxPoint x="-130" y="280" as="targetPoint" />
            <Array as="points">
              <mxPoint x="140" y="260" />
              <mxPoint x="140" y="209" />
            </Array>
          </mxGeometry>
        </mxCell>
        <mxCell id="O73Z84jBXJhSjB4GHqbN-45" style="edgeStyle=none;rounded=0;orthogonalLoop=1;jettySize=auto;html=1;exitX=1;exitY=0.75;exitDx=0;exitDy=0;startArrow=oval;startFill=1;endArrow=block;endFill=1;strokeWidth=4;strokeColor=#F0AB00;entryX=0;entryY=0.5;entryDx=0;entryDy=0;dashed=1;dashPattern=1 1;" parent="-H8vIctdZyZoKpkkq821-2" source="O73Z84jBXJhSjB4GHqbN-42" target="O73Z84jBXJhSjB4GHqbN-15" edge="1">
          <mxGeometry relative="1" as="geometry">
            <mxPoint x="120" y="270" as="sourcePoint" />
            <mxPoint x="190" y="219" as="targetPoint" />
            <Array as="points">
              <mxPoint x="140" y="280" />
              <mxPoint x="140" y="330" />
            </Array>
          </mxGeometry>
        </mxCell>
        <mxCell id="-H8vIctdZyZoKpkkq821-3" value="" style="group" vertex="1" connectable="0" parent="1">
          <mxGeometry x="680" y="40" width="290" height="500" as="geometry" />
        </mxCell>
        <mxCell id="O73Z84jBXJhSjB4GHqbN-4" value="&lt;div&gt;Data Quality Management&amp;nbsp;&lt;/div&gt;" style="rounded=0;whiteSpace=wrap;html=1;fontColor=#FFFFFF;fillColor=#F0AB00;strokeColor=#F0AB00;fontSize=16;shadow=1;" parent="-H8vIctdZyZoKpkkq821-3" vertex="1">
          <mxGeometry width="290" height="60" as="geometry" />
        </mxCell>
        <mxCell id="O73Z84jBXJhSjB4GHqbN-17" value="&lt;div style=&quot;&quot;&gt;&lt;div style=&quot;&quot;&gt;&lt;div&gt;&lt;font color=&quot;#000000&quot;&gt;Integration of data from multiple sources for cleansing, matching or consolidation (central business terms).&amp;nbsp;&lt;/font&gt;&lt;/div&gt;&lt;div&gt;&lt;font color=&quot;#000000&quot;&gt;&lt;br&gt;&lt;/font&gt;&lt;/div&gt;&lt;div&gt;&lt;br&gt;&lt;/div&gt;&lt;/div&gt;&lt;/div&gt;" style="rounded=0;whiteSpace=wrap;html=1;fontColor=#FFFFFF;fillColor=#FFFFFF;strokeColor=#feefc9;fontSize=16;shadow=1;align=center;verticalAlign=top;" parent="-H8vIctdZyZoKpkkq821-3" vertex="1">
          <mxGeometry y="60" width="290" height="320" as="geometry" />
        </mxCell>
        <mxCell id="O73Z84jBXJhSjB4GHqbN-26" value="&lt;div style=&quot;&quot;&gt;&lt;div style=&quot;&quot;&gt;&lt;div style=&quot;&quot;&gt;&lt;div&gt;&lt;u&gt;Example&lt;/u&gt;: Cleansing of address data. Embedded DQM services in apps to validate address data and/or enrich with geocodes.&lt;/div&gt;&lt;div&gt;&lt;br&gt;&lt;/div&gt;&lt;/div&gt;&lt;/div&gt;&lt;/div&gt;" style="rounded=0;whiteSpace=wrap;html=1;fontColor=#000000;fillColor=#FEEFC9;strokeColor=#FEEFC9;align=left;verticalAlign=top;fontSize=14;" parent="-H8vIctdZyZoKpkkq821-3" vertex="1">
          <mxGeometry y="400" width="290" height="100" as="geometry" />
        </mxCell>
        <mxCell id="O73Z84jBXJhSjB4GHqbN-46" value="" style="group" parent="-H8vIctdZyZoKpkkq821-3" vertex="1" connectable="0">
          <mxGeometry x="170" y="203" width="110" height="100" as="geometry" />
        </mxCell>
        <mxCell id="O73Z84jBXJhSjB4GHqbN-47" value="" style="rounded=0;whiteSpace=wrap;html=1;" parent="O73Z84jBXJhSjB4GHqbN-46" vertex="1">
          <mxGeometry y="30" width="110" height="60" as="geometry" />
        </mxCell>
        <mxCell id="O73Z84jBXJhSjB4GHqbN-48" value="DQM" style="rounded=0;whiteSpace=wrap;html=1;fillColor=#000000;fontColor=#FFFFFF;fontSize=16;" parent="O73Z84jBXJhSjB4GHqbN-46" vertex="1">
          <mxGeometry width="110" height="30" as="geometry" />
        </mxCell>
        <mxCell id="O73Z84jBXJhSjB4GHqbN-49" value="" style="rounded=0;whiteSpace=wrap;html=1;fillColor=#595959;fontColor=#FFFFFF;align=left;verticalAlign=top;" parent="O73Z84jBXJhSjB4GHqbN-46" vertex="1">
          <mxGeometry x="10" y="40" width="90" height="40" as="geometry" />
        </mxCell>
        <mxCell id="O73Z84jBXJhSjB4GHqbN-50" value="" style="shape=image;verticalLabelPosition=bottom;labelBackgroundColor=default;verticalAlign=top;aspect=fixed;imageAspect=0;image=data:image/png,iVBORw0KGgoAAAANSUhEUgAAAJ4AAACeCAYAAADDhbN7AAAAAXNSR0IArs4c6QAAAIRlWElmTU0AKgAAAAgABQESAAMAAAABAAEAAAEaAAUAAAABAAAASgEbAAUAAAABAAAAUgEoAAMAAAABAAIAAIdpAAQAAAABAAAAWgAAAAAAAADcAAAAAQAAANwAAAABAAOgAQADAAAAAQABAACgAgAEAAAAAQAAAJ6gAwAEAAAAAQAAAJ4AAAAAeonODQAAAAlwSFlzAAAh1QAAIdUBBJy0nQAADL5JREFUeAHtnXuMXUUdx+c+drfsltJuiy2tFajEaknFAJr4akIEQjABtQ9joUQLklRBAwaVxD8QoUr5Q/4RIyg0to2RWlOBRIkkiI+ioTYUBdsA0nbb7Yt23e2W3e59+Z3dndu5Z88999xzzj0z95zvJLMzZ+Y3M7/fZ35nzvOeFYKBBEiABEiABEiABEiABEiABEiABEiABEiABEiABEiABEiABEiABEiABEiABEiABEiABEiABEiABEiABEiABEiABEiABEiABEiABEiABEiABEiABEiABEiABEiABEiABEiABEIRyIRqnZLGlUpFcspOmqtSN+vLk4XlTCZTcRNg2QSB1DgenGdxuVz+Ksy+KpvNXm6bA5RKpR25XG479PolnPaobfpRnzoE4FgXYPIeQ5rYAPvuh3Gz6yBoq+K2XPEA/06sXg9h5TonCtroq4h+NqK/l5DKOCQjVp5TSEMF6HouOpiBOAvx0xjrSoyzNlSnWmP0dwr9rYGuv9OKmY2CAPb0Tc0uY2hzDPGnaPeBKHSIuw/ovVjajTgQwPb1ceubmPEAfMwPcMjth1xXYgz3YQjsnVYsFn05JPiM+ugy3SKA9BMvZ0P9btTLwxaDgwC4XAI+R7z4oe5rjmbp3gSQ77gBA8giyiM5j0sbYXC7GPzKblxR9om08Zhibx0wi6cIsiAwATBe5uQsnTJwhxE0NHpVK2HoNuDKzKg+ui5JzAO3vPld0m0zxdzrLryuX+R57HGvq04B5GlTAJQOaUjBWD5RyeAWTPWCA+zvNmG7sRUGBldXOzpd/FNvmr+xFS9+1BzRJgJWOB4Ou7+yCUrSdQHvfaZttOJQqyDwkKtItCbF4bUTPZ9x9m6CuxUrngIhzzsmQ4cqYxqeAJguklzR0xSnC997sB6scDxcZT3iUH/8cZm81wRe73XUcdMHAXC7TDqbDBB/S28Crjfp26nKTyCZ+KsMhwP+US935gFsQMkynUoAfOSTnroB9XepVrqQKktF6mU46jr0eq88YG5GvbFzVROTBXtnYyd91ouLqgOf0246qnqZutUntqwZwwFvjy7fRP52yM5pR4jQ+z2I32vC1qoonPK5RjZXhZFpJNuKemMrhTRcGdTsVRWafhltn1Ttw6SYpP+h/duIr+CFyheR7oI+/wrTp1tb6HwZyj+CdAXiAuQvxngz3WQDlK2AztuaaQcdAvNvZpx6sm3peG7GgON8xI2YgGvc6pNQBvu2wb5bEN8Naw/6Mup4YfUP3F4arkLgTnw2xDh5xF4csjeoMW1Mod966DUTMefTtMBiuv2BOwnRMDErXggGvppioqZBcO6k8EUujfbJMqxG+13qrCuSjqeUgs6x+0HsAypjTRuu9Ehrapq/FTeQ0zr5ababjpfm2Tdou9WOJw8HMuCk+7hBRhy6BQSsdjxlL+53zZlwwZq/C1U90/YjYLvjef3o50D74abGxgnoa5dfZXDIrfk2it92lJtKIAj/qb0EL+HtlODs2rqldDxlgIn7eLYfahUbpgkjYIXjYec7L2FcrTYHvD9ktYKtVE4u9XrA+dtrrRyPfU8QAOdBnbvMp4qN03i1DTCbUwUiJmPxdam/KsbONCYV7BhGNx7OVu/jMvy9RYjpAuNrdc4qD96jKi/TEEO0X1On4djO6WXOPPbYl9vPyvg1hlN5vq2tNNL5qrJUpF6Go26nXu+RX5UKWHWMBJd1HmyqVXjL+vfOLqqVyDjrEr3t13DswVt02UZ5yA8h/ixJ8GDPZsThRrY76u/xYqDLesklri6o4ZiAR/W2QfLo4yTabUT8EqKRbyRj3I8i3oHVaBvS0AE2/bAZJ9EHbKZdVLKJeHIBiN/CBD6Ilwm6ogJjaz+wcwR2LsfThimHz2Z0lo6n5E08uVBjx57GscdhjCzitZis3+rj2Z7H6vVr6NjSHy3pDGKffAyYiBUvanCYlM/BWa/BSrAEaQ/Sbowx/tFvrDZ1P/4NWfn/MWQYQh9DkD2BdBfSP6GPFyaq7PgrHU9pYmLFo+Mp+ilLTTueFc9qUzbnNBcE6Hh0AyMErHY8eThQASfcm4wQ4qDJIqAcSqb1LNNlnHmcyD9Trx3LGxPQeTaWTpCEX8Ox0h3QZfV8gnDEbkpqOQYxHG3y8mUB2RYO+U7ss5WgAYPwj9J83k6JkmYb9SUdT6lr4j6e1RcXCgzT5BGg4yVvTtvCIiscT1/224JaGysJ1gts4J23haEGI4dzDqP/0tIWJlHqAb7ys7fWfDXfihXPAbgknVC+oeEo52YAAuD4z8md2hqnC2BGdE0kDBVkr7ghXPfz+YVCYS9kW/551uisM9cTOMlP7tZ9Wxl1P5LaKfYyNaetgZHrGY7yS/U6j7yNq3XsJMFniQcjvUp+Srca9IpqYRoyfgyHzFpdrlEeq+Z2yCTyV/Kw63LY94dGDBz1K+r5ki5XTyaR5UEMx1OLP+vtms1PPvW4Du3m2QIVumQQ5ZXmahwGdyMNHOSO59cufRC/baKUa+snF4An/7fFY7gK/myUUHz0NegiE+v3X+BkW/Bm8zdh+wkXXRoWScdTQiaeXKixY0+l4Sq0YnCsbqsR6362QY1tcwrneh763dAKPrrdrejf2j5tMBw6dCFOR7wBTvoXXadW5eFML6Dv6xF7EI3dR8XY1WDCSdr6UGsCWFLGlF6nbDFxqOUtCUWfaawE6Hix4uZgioDVjlc9CalUvq4UZkoCoQhoTlU913B2qMvoeZygN/xHwM6+uF1LQOdZW5PwLT+GT14B6qI1+YQjaql5OsiWDmRb580aDvl5uLM/1mw72+y2RR/THHk7xRZPiFkP6XhqSN5OUSSYJp6A1Ve1iaefYgONOd6JH5/9fLG+7Kd4LmIzXec9uK3mNb3YdDDmeCMvba0xUsIYfe3FnTWF3IiUQOF0//jFmeq0UnwXryKfUZuxpsYcT1p5cFVGFA7+p2pw15JlV0gHLJweKlULmQlNQDKVId99QYfqbPSNR8TQ9h61GXtq1PGktUfvXjLugLrl+e5z5Sdkq2H4+cfn6vXMexMYffWJRVV4yDilB3+TEWd23+UsjnXbuOMpa+XqJ6Nb6PnMbUcUyMLQ8ZPvPPXAAje5tJadevrm5YVT/UXFqGvpV95yYyEdTkYbgjEt+laKKXuiDiR/4YfFvId360We+dKpY5/Pz5jr+9Vvz84sriwc2nFPfv7HN/hVcXA7Xowuqk8zu7eauTL+b2Fb63i1iDLi/PV/F12XfKy22MdWaWykUDz4ysHSv3/+qZ4bn+j30cSoyMC2NWt6lt37YHbGhfNznd1N/6TzzL4nxejOtU3ZQMdrAlfX0qvFrHW/EPk572uilT/R4vDxghg+chwfxX8z09F9LDd70atj+/5RkK2Lx/ae/TxabgRvEGeqO29+3qWzpEzngk/miv07r66UyudVOrsX5WZeND3XNb0qJ2WiCKWhvWLk5ZtFaSDczQA6XgSzkZ29UMzdsEtke3pFJmvNKWxgyyrlgiiP9Ivh5/CrzfJI4H68GppwPGPv/HuBCFNXPtEnDt96/ngXHYtceursER0LrhSd779KTFu6UuTnLnERiqeoePJ1MbZniygc/psoHt4BxxpfVGsGz8+v2UzMRuTLv18yjS4u/PbjJefqeF4NmqzLzsZn81v8T6zicDwTK177H4uadBaK20GAjmfHPKROCzpe6qbcDoPpeHbMQ+q0oOOlbsrtMJiOZ8c8pE4LOl7qptwOg+l4dsxD6rSg46Vuyu0w2JzjVcQeOxCkW4viIbHRBAFjj8yksa1+bMZHZo1dysTjMqmVuRUPgy/cGv8LiI2nIh0S5bKomHI6Sdio40kFpPMBwr0yzxAPgbFDYlXvF83OvdFDrRPzgeXi0UxWrHOWB93mobaWXGVI3DfrVvH92lIzW1Y5no5g/wpRyGZEqPcF6Xh4xa8iCr2rRKfO1oa8tY6nw+n7gtgscuImvcxPPq2OVx4Qm3pvF7f4YWRKpi0czwmnb4W4E79RewhnKec46/TtNDheuSgK5T5x/5xviwd0223Pt6XjuUF9e6WYly+JH2BlvE3VJ83xikfFM9lhcUfvd8UBZWO7polxvEYT0P8NcUVmmlidqYjrsVJ+sJG8n/qoXn2XtzZEUezJFMWzoyfF4wsfFm/4Gb+dZVLjeGEmqXLf+K0HdetJpeNdvnni7L3IwTNi/B88/3dAlFdtFfz+SxjobEsCJEACJEACJEACJEACJEACJEACJEACJEACJEACJEACJEACJEACJEACJEACJEACJEACJEACJEACJEACJEACJEACJEACJEACJEACJEACJEACJEACJEACJEACJEACJNBGBP4Pta7qWmho+60AAAAASUVORK5CYII=;" parent="O73Z84jBXJhSjB4GHqbN-46" vertex="1">
          <mxGeometry x="30" y="35" width="50" height="50" as="geometry" />
        </mxCell>
        <mxCell id="O73Z84jBXJhSjB4GHqbN-51" value="" style="group" parent="-H8vIctdZyZoKpkkq821-3" vertex="1" connectable="0">
          <mxGeometry x="10" y="143" width="110" height="100" as="geometry" />
        </mxCell>
        <mxCell id="O73Z84jBXJhSjB4GHqbN-52" value="" style="rounded=0;whiteSpace=wrap;html=1;" parent="O73Z84jBXJhSjB4GHqbN-51" vertex="1">
          <mxGeometry y="30" width="110" height="60" as="geometry" />
        </mxCell>
        <mxCell id="O73Z84jBXJhSjB4GHqbN-53" value="Data Source" style="rounded=0;whiteSpace=wrap;html=1;fillColor=#000000;fontColor=#FFFFFF;fontSize=16;" parent="O73Z84jBXJhSjB4GHqbN-51" vertex="1">
          <mxGeometry width="110" height="30" as="geometry" />
        </mxCell>
        <mxCell id="O73Z84jBXJhSjB4GHqbN-54" value="" style="rounded=0;whiteSpace=wrap;html=1;fillColor=#595959;fontColor=#FFFFFF;align=left;verticalAlign=top;" parent="O73Z84jBXJhSjB4GHqbN-51" vertex="1">
          <mxGeometry x="10" y="40" width="90" height="40" as="geometry" />
        </mxCell>
        <mxCell id="O73Z84jBXJhSjB4GHqbN-55" value="" style="shape=image;verticalLabelPosition=bottom;labelBackgroundColor=default;verticalAlign=top;aspect=fixed;imageAspect=0;image=data:image/png,iVBORw0KGgoAAAANSUhEUgAAAJ4AAACeCAYAAADDhbN7AAAAAXNSR0IArs4c6QAAAIRlWElmTU0AKgAAAAgABQESAAMAAAABAAEAAAEaAAUAAAABAAAASgEbAAUAAAABAAAAUgEoAAMAAAABAAIAAIdpAAQAAAABAAAAWgAAAAAAAADcAAAAAQAAANwAAAABAAOgAQADAAAAAQABAACgAgAEAAAAAQAAAJ6gAwAEAAAAAQAAAJ4AAAAAeonODQAAAAlwSFlzAAAh1QAAIdUBBJy0nQAADL5JREFUeAHtnXuMXUUdx+c+drfsltJuiy2tFajEaknFAJr4akIEQjABtQ9joUQLklRBAwaVxD8QoUr5Q/4RIyg0to2RWlOBRIkkiI+ioTYUBdsA0nbb7Yt23e2W3e59+Z3dndu5Z88999xzzj0z95zvJLMzZ+Y3M7/fZ35nzvOeFYKBBEiABEiABEiABEiABEiABEiABEiABEiABEiABEiABEiABEiABEiABEiABEiABEiABEiABEiABEiABEiABEiABEiABEiABEiABEiABEiABEiABEiABEiABEiABEiABEiABEIRyIRqnZLGlUpFcspOmqtSN+vLk4XlTCZTcRNg2QSB1DgenGdxuVz+Ksy+KpvNXm6bA5RKpR25XG479PolnPaobfpRnzoE4FgXYPIeQ5rYAPvuh3Gz6yBoq+K2XPEA/06sXg9h5TonCtroq4h+NqK/l5DKOCQjVp5TSEMF6HouOpiBOAvx0xjrSoyzNlSnWmP0dwr9rYGuv9OKmY2CAPb0Tc0uY2hzDPGnaPeBKHSIuw/ovVjajTgQwPb1ceubmPEAfMwPcMjth1xXYgz3YQjsnVYsFn05JPiM+ugy3SKA9BMvZ0P9btTLwxaDgwC4XAI+R7z4oe5rjmbp3gSQ77gBA8giyiM5j0sbYXC7GPzKblxR9om08Zhibx0wi6cIsiAwATBe5uQsnTJwhxE0NHpVK2HoNuDKzKg+ui5JzAO3vPld0m0zxdzrLryuX+R57HGvq04B5GlTAJQOaUjBWD5RyeAWTPWCA+zvNmG7sRUGBldXOzpd/FNvmr+xFS9+1BzRJgJWOB4Ou7+yCUrSdQHvfaZttOJQqyDwkKtItCbF4bUTPZ9x9m6CuxUrngIhzzsmQ4cqYxqeAJguklzR0xSnC997sB6scDxcZT3iUH/8cZm81wRe73XUcdMHAXC7TDqbDBB/S28Crjfp26nKTyCZ+KsMhwP+US935gFsQMkynUoAfOSTnroB9XepVrqQKktF6mU46jr0eq88YG5GvbFzVROTBXtnYyd91ouLqgOf0246qnqZutUntqwZwwFvjy7fRP52yM5pR4jQ+z2I32vC1qoonPK5RjZXhZFpJNuKemMrhTRcGdTsVRWafhltn1Ttw6SYpP+h/duIr+CFyheR7oI+/wrTp1tb6HwZyj+CdAXiAuQvxngz3WQDlK2AztuaaQcdAvNvZpx6sm3peG7GgON8xI2YgGvc6pNQBvu2wb5bEN8Naw/6Mup4YfUP3F4arkLgTnw2xDh5xF4csjeoMW1Mod966DUTMefTtMBiuv2BOwnRMDErXggGvppioqZBcO6k8EUujfbJMqxG+13qrCuSjqeUgs6x+0HsAypjTRuu9Ehrapq/FTeQ0zr5ababjpfm2Tdou9WOJw8HMuCk+7hBRhy6BQSsdjxlL+53zZlwwZq/C1U90/YjYLvjef3o50D74abGxgnoa5dfZXDIrfk2it92lJtKIAj/qb0EL+HtlODs2rqldDxlgIn7eLYfahUbpgkjYIXjYec7L2FcrTYHvD9ktYKtVE4u9XrA+dtrrRyPfU8QAOdBnbvMp4qN03i1DTCbUwUiJmPxdam/KsbONCYV7BhGNx7OVu/jMvy9RYjpAuNrdc4qD96jKi/TEEO0X1On4djO6WXOPPbYl9vPyvg1hlN5vq2tNNL5qrJUpF6Go26nXu+RX5UKWHWMBJd1HmyqVXjL+vfOLqqVyDjrEr3t13DswVt02UZ5yA8h/ixJ8GDPZsThRrY76u/xYqDLesklri6o4ZiAR/W2QfLo4yTabUT8EqKRbyRj3I8i3oHVaBvS0AE2/bAZJ9EHbKZdVLKJeHIBiN/CBD6Ilwm6ogJjaz+wcwR2LsfThimHz2Z0lo6n5E08uVBjx57GscdhjCzitZis3+rj2Z7H6vVr6NjSHy3pDGKffAyYiBUvanCYlM/BWa/BSrAEaQ/Sbowx/tFvrDZ1P/4NWfn/MWQYQh9DkD2BdBfSP6GPFyaq7PgrHU9pYmLFo+Mp+ilLTTueFc9qUzbnNBcE6Hh0AyMErHY8eThQASfcm4wQ4qDJIqAcSqb1LNNlnHmcyD9Trx3LGxPQeTaWTpCEX8Ox0h3QZfV8gnDEbkpqOQYxHG3y8mUB2RYO+U7ss5WgAYPwj9J83k6JkmYb9SUdT6lr4j6e1RcXCgzT5BGg4yVvTtvCIiscT1/224JaGysJ1gts4J23haEGI4dzDqP/0tIWJlHqAb7ys7fWfDXfihXPAbgknVC+oeEo52YAAuD4z8md2hqnC2BGdE0kDBVkr7ghXPfz+YVCYS9kW/551uisM9cTOMlP7tZ9Wxl1P5LaKfYyNaetgZHrGY7yS/U6j7yNq3XsJMFniQcjvUp+Srca9IpqYRoyfgyHzFpdrlEeq+Z2yCTyV/Kw63LY94dGDBz1K+r5ki5XTyaR5UEMx1OLP+vtms1PPvW4Du3m2QIVumQQ5ZXmahwGdyMNHOSO59cufRC/baKUa+snF4An/7fFY7gK/myUUHz0NegiE+v3X+BkW/Bm8zdh+wkXXRoWScdTQiaeXKixY0+l4Sq0YnCsbqsR6362QY1tcwrneh763dAKPrrdrejf2j5tMBw6dCFOR7wBTvoXXadW5eFML6Dv6xF7EI3dR8XY1WDCSdr6UGsCWFLGlF6nbDFxqOUtCUWfaawE6Hix4uZgioDVjlc9CalUvq4UZkoCoQhoTlU913B2qMvoeZygN/xHwM6+uF1LQOdZW5PwLT+GT14B6qI1+YQjaql5OsiWDmRb580aDvl5uLM/1mw72+y2RR/THHk7xRZPiFkP6XhqSN5OUSSYJp6A1Ve1iaefYgONOd6JH5/9fLG+7Kd4LmIzXec9uK3mNb3YdDDmeCMvba0xUsIYfe3FnTWF3IiUQOF0//jFmeq0UnwXryKfUZuxpsYcT1p5cFVGFA7+p2pw15JlV0gHLJweKlULmQlNQDKVId99QYfqbPSNR8TQ9h61GXtq1PGktUfvXjLugLrl+e5z5Sdkq2H4+cfn6vXMexMYffWJRVV4yDilB3+TEWd23+UsjnXbuOMpa+XqJ6Nb6PnMbUcUyMLQ8ZPvPPXAAje5tJadevrm5YVT/UXFqGvpV95yYyEdTkYbgjEt+laKKXuiDiR/4YfFvId360We+dKpY5/Pz5jr+9Vvz84sriwc2nFPfv7HN/hVcXA7Xowuqk8zu7eauTL+b2Fb63i1iDLi/PV/F12XfKy22MdWaWykUDz4ysHSv3/+qZ4bn+j30cSoyMC2NWt6lt37YHbGhfNznd1N/6TzzL4nxejOtU3ZQMdrAlfX0qvFrHW/EPk572uilT/R4vDxghg+chwfxX8z09F9LDd70atj+/5RkK2Lx/ae/TxabgRvEGeqO29+3qWzpEzngk/miv07r66UyudVOrsX5WZeND3XNb0qJ2WiCKWhvWLk5ZtFaSDczQA6XgSzkZ29UMzdsEtke3pFJmvNKWxgyyrlgiiP9Ivh5/CrzfJI4H68GppwPGPv/HuBCFNXPtEnDt96/ngXHYtceursER0LrhSd779KTFu6UuTnLnERiqeoePJ1MbZniygc/psoHt4BxxpfVGsGz8+v2UzMRuTLv18yjS4u/PbjJefqeF4NmqzLzsZn81v8T6zicDwTK177H4uadBaK20GAjmfHPKROCzpe6qbcDoPpeHbMQ+q0oOOlbsrtMJiOZ8c8pE4LOl7qptwOg+l4dsxD6rSg46Vuyu0w2JzjVcQeOxCkW4viIbHRBAFjj8yksa1+bMZHZo1dysTjMqmVuRUPgy/cGv8LiI2nIh0S5bKomHI6Sdio40kFpPMBwr0yzxAPgbFDYlXvF83OvdFDrRPzgeXi0UxWrHOWB93mobaWXGVI3DfrVvH92lIzW1Y5no5g/wpRyGZEqPcF6Xh4xa8iCr2rRKfO1oa8tY6nw+n7gtgscuImvcxPPq2OVx4Qm3pvF7f4YWRKpi0czwmnb4W4E79RewhnKec46/TtNDheuSgK5T5x/5xviwd0223Pt6XjuUF9e6WYly+JH2BlvE3VJ83xikfFM9lhcUfvd8UBZWO7polxvEYT0P8NcUVmmlidqYjrsVJ+sJG8n/qoXn2XtzZEUezJFMWzoyfF4wsfFm/4Gb+dZVLjeGEmqXLf+K0HdetJpeNdvnni7L3IwTNi/B88/3dAlFdtFfz+SxjobEsCJEACJEACJEACJEACJEACJEACJEACJEACJEACJEACJEACJEACJEACJEACJEACJEACJEACJEACJEACJEACJEACJEACJEACJEACJEACJEACJEACJEACJEACJEACJNBGBP4Pta7qWmho+60AAAAASUVORK5CYII=;" parent="O73Z84jBXJhSjB4GHqbN-51" vertex="1">
          <mxGeometry x="30" y="35" width="50" height="50" as="geometry" />
        </mxCell>
        <mxCell id="O73Z84jBXJhSjB4GHqbN-56" value="" style="group" parent="-H8vIctdZyZoKpkkq821-3" vertex="1" connectable="0">
          <mxGeometry x="10" y="263" width="110" height="100" as="geometry" />
        </mxCell>
        <mxCell id="O73Z84jBXJhSjB4GHqbN-57" value="" style="rounded=0;whiteSpace=wrap;html=1;" parent="O73Z84jBXJhSjB4GHqbN-56" vertex="1">
          <mxGeometry y="30" width="110" height="60" as="geometry" />
        </mxCell>
        <mxCell id="O73Z84jBXJhSjB4GHqbN-58" value="Data Source" style="rounded=0;whiteSpace=wrap;html=1;fillColor=#000000;fontColor=#FFFFFF;fontSize=16;" parent="O73Z84jBXJhSjB4GHqbN-56" vertex="1">
          <mxGeometry width="110" height="30" as="geometry" />
        </mxCell>
        <mxCell id="O73Z84jBXJhSjB4GHqbN-59" value="" style="rounded=0;whiteSpace=wrap;html=1;fillColor=#595959;fontColor=#FFFFFF;align=left;verticalAlign=top;" parent="O73Z84jBXJhSjB4GHqbN-56" vertex="1">
          <mxGeometry x="10" y="40" width="90" height="40" as="geometry" />
        </mxCell>
        <mxCell id="O73Z84jBXJhSjB4GHqbN-60" value="" style="shape=image;verticalLabelPosition=bottom;labelBackgroundColor=default;verticalAlign=top;aspect=fixed;imageAspect=0;image=data:image/png,iVBORw0KGgoAAAANSUhEUgAAAJ4AAACeCAYAAADDhbN7AAAAAXNSR0IArs4c6QAAAIRlWElmTU0AKgAAAAgABQESAAMAAAABAAEAAAEaAAUAAAABAAAASgEbAAUAAAABAAAAUgEoAAMAAAABAAIAAIdpAAQAAAABAAAAWgAAAAAAAADcAAAAAQAAANwAAAABAAOgAQADAAAAAQABAACgAgAEAAAAAQAAAJ6gAwAEAAAAAQAAAJ4AAAAAeonODQAAAAlwSFlzAAAh1QAAIdUBBJy0nQAADL5JREFUeAHtnXuMXUUdx+c+drfsltJuiy2tFajEaknFAJr4akIEQjABtQ9joUQLklRBAwaVxD8QoUr5Q/4RIyg0to2RWlOBRIkkiI+ioTYUBdsA0nbb7Yt23e2W3e59+Z3dndu5Z88999xzzj0z95zvJLMzZ+Y3M7/fZ35nzvOeFYKBBEiABEiABEiABEiABEiABEiABEiABEiABEiABEiABEiABEiABEiABEiABEiABEiABEiABEiABEiABEiABEiABEiABEiABEiABEiABEiABEiABEiABEiABEiABEiABEiABEIRyIRqnZLGlUpFcspOmqtSN+vLk4XlTCZTcRNg2QSB1DgenGdxuVz+Ksy+KpvNXm6bA5RKpR25XG479PolnPaobfpRnzoE4FgXYPIeQ5rYAPvuh3Gz6yBoq+K2XPEA/06sXg9h5TonCtroq4h+NqK/l5DKOCQjVp5TSEMF6HouOpiBOAvx0xjrSoyzNlSnWmP0dwr9rYGuv9OKmY2CAPb0Tc0uY2hzDPGnaPeBKHSIuw/ovVjajTgQwPb1ceubmPEAfMwPcMjth1xXYgz3YQjsnVYsFn05JPiM+ugy3SKA9BMvZ0P9btTLwxaDgwC4XAI+R7z4oe5rjmbp3gSQ77gBA8giyiM5j0sbYXC7GPzKblxR9om08Zhibx0wi6cIsiAwATBe5uQsnTJwhxE0NHpVK2HoNuDKzKg+ui5JzAO3vPld0m0zxdzrLryuX+R57HGvq04B5GlTAJQOaUjBWD5RyeAWTPWCA+zvNmG7sRUGBldXOzpd/FNvmr+xFS9+1BzRJgJWOB4Ou7+yCUrSdQHvfaZttOJQqyDwkKtItCbF4bUTPZ9x9m6CuxUrngIhzzsmQ4cqYxqeAJguklzR0xSnC997sB6scDxcZT3iUH/8cZm81wRe73XUcdMHAXC7TDqbDBB/S28Crjfp26nKTyCZ+KsMhwP+US935gFsQMkynUoAfOSTnroB9XepVrqQKktF6mU46jr0eq88YG5GvbFzVROTBXtnYyd91ouLqgOf0246qnqZutUntqwZwwFvjy7fRP52yM5pR4jQ+z2I32vC1qoonPK5RjZXhZFpJNuKemMrhTRcGdTsVRWafhltn1Ttw6SYpP+h/duIr+CFyheR7oI+/wrTp1tb6HwZyj+CdAXiAuQvxngz3WQDlK2AztuaaQcdAvNvZpx6sm3peG7GgON8xI2YgGvc6pNQBvu2wb5bEN8Naw/6Mup4YfUP3F4arkLgTnw2xDh5xF4csjeoMW1Mod966DUTMefTtMBiuv2BOwnRMDErXggGvppioqZBcO6k8EUujfbJMqxG+13qrCuSjqeUgs6x+0HsAypjTRuu9Ehrapq/FTeQ0zr5ababjpfm2Tdou9WOJw8HMuCk+7hBRhy6BQSsdjxlL+53zZlwwZq/C1U90/YjYLvjef3o50D74abGxgnoa5dfZXDIrfk2it92lJtKIAj/qb0EL+HtlODs2rqldDxlgIn7eLYfahUbpgkjYIXjYec7L2FcrTYHvD9ktYKtVE4u9XrA+dtrrRyPfU8QAOdBnbvMp4qN03i1DTCbUwUiJmPxdam/KsbONCYV7BhGNx7OVu/jMvy9RYjpAuNrdc4qD96jKi/TEEO0X1On4djO6WXOPPbYl9vPyvg1hlN5vq2tNNL5qrJUpF6Go26nXu+RX5UKWHWMBJd1HmyqVXjL+vfOLqqVyDjrEr3t13DswVt02UZ5yA8h/ixJ8GDPZsThRrY76u/xYqDLesklri6o4ZiAR/W2QfLo4yTabUT8EqKRbyRj3I8i3oHVaBvS0AE2/bAZJ9EHbKZdVLKJeHIBiN/CBD6Ilwm6ogJjaz+wcwR2LsfThimHz2Z0lo6n5E08uVBjx57GscdhjCzitZis3+rj2Z7H6vVr6NjSHy3pDGKffAyYiBUvanCYlM/BWa/BSrAEaQ/Sbowx/tFvrDZ1P/4NWfn/MWQYQh9DkD2BdBfSP6GPFyaq7PgrHU9pYmLFo+Mp+ilLTTueFc9qUzbnNBcE6Hh0AyMErHY8eThQASfcm4wQ4qDJIqAcSqb1LNNlnHmcyD9Trx3LGxPQeTaWTpCEX8Ox0h3QZfV8gnDEbkpqOQYxHG3y8mUB2RYO+U7ss5WgAYPwj9J83k6JkmYb9SUdT6lr4j6e1RcXCgzT5BGg4yVvTtvCIiscT1/224JaGysJ1gts4J23haEGI4dzDqP/0tIWJlHqAb7ys7fWfDXfihXPAbgknVC+oeEo52YAAuD4z8md2hqnC2BGdE0kDBVkr7ghXPfz+YVCYS9kW/551uisM9cTOMlP7tZ9Wxl1P5LaKfYyNaetgZHrGY7yS/U6j7yNq3XsJMFniQcjvUp+Srca9IpqYRoyfgyHzFpdrlEeq+Z2yCTyV/Kw63LY94dGDBz1K+r5ki5XTyaR5UEMx1OLP+vtms1PPvW4Du3m2QIVumQQ5ZXmahwGdyMNHOSO59cufRC/baKUa+snF4An/7fFY7gK/myUUHz0NegiE+v3X+BkW/Bm8zdh+wkXXRoWScdTQiaeXKixY0+l4Sq0YnCsbqsR6362QY1tcwrneh763dAKPrrdrejf2j5tMBw6dCFOR7wBTvoXXadW5eFML6Dv6xF7EI3dR8XY1WDCSdr6UGsCWFLGlF6nbDFxqOUtCUWfaawE6Hix4uZgioDVjlc9CalUvq4UZkoCoQhoTlU913B2qMvoeZygN/xHwM6+uF1LQOdZW5PwLT+GT14B6qI1+YQjaql5OsiWDmRb580aDvl5uLM/1mw72+y2RR/THHk7xRZPiFkP6XhqSN5OUSSYJp6A1Ve1iaefYgONOd6JH5/9fLG+7Kd4LmIzXec9uK3mNb3YdDDmeCMvba0xUsIYfe3FnTWF3IiUQOF0//jFmeq0UnwXryKfUZuxpsYcT1p5cFVGFA7+p2pw15JlV0gHLJweKlULmQlNQDKVId99QYfqbPSNR8TQ9h61GXtq1PGktUfvXjLugLrl+e5z5Sdkq2H4+cfn6vXMexMYffWJRVV4yDilB3+TEWd23+UsjnXbuOMpa+XqJ6Nb6PnMbUcUyMLQ8ZPvPPXAAje5tJadevrm5YVT/UXFqGvpV95yYyEdTkYbgjEt+laKKXuiDiR/4YfFvId360We+dKpY5/Pz5jr+9Vvz84sriwc2nFPfv7HN/hVcXA7Xowuqk8zu7eauTL+b2Fb63i1iDLi/PV/F12XfKy22MdWaWykUDz4ysHSv3/+qZ4bn+j30cSoyMC2NWt6lt37YHbGhfNznd1N/6TzzL4nxejOtU3ZQMdrAlfX0qvFrHW/EPk572uilT/R4vDxghg+chwfxX8z09F9LDd70atj+/5RkK2Lx/ae/TxabgRvEGeqO29+3qWzpEzngk/miv07r66UyudVOrsX5WZeND3XNb0qJ2WiCKWhvWLk5ZtFaSDczQA6XgSzkZ29UMzdsEtke3pFJmvNKWxgyyrlgiiP9Ivh5/CrzfJI4H68GppwPGPv/HuBCFNXPtEnDt96/ngXHYtceursER0LrhSd779KTFu6UuTnLnERiqeoePJ1MbZniygc/psoHt4BxxpfVGsGz8+v2UzMRuTLv18yjS4u/PbjJefqeF4NmqzLzsZn81v8T6zicDwTK177H4uadBaK20GAjmfHPKROCzpe6qbcDoPpeHbMQ+q0oOOlbsrtMJiOZ8c8pE4LOl7qptwOg+l4dsxD6rSg46Vuyu0w2JzjVcQeOxCkW4viIbHRBAFjj8yksa1+bMZHZo1dysTjMqmVuRUPgy/cGv8LiI2nIh0S5bKomHI6Sdio40kFpPMBwr0yzxAPgbFDYlXvF83OvdFDrRPzgeXi0UxWrHOWB93mobaWXGVI3DfrVvH92lIzW1Y5no5g/wpRyGZEqPcF6Xh4xa8iCr2rRKfO1oa8tY6nw+n7gtgscuImvcxPPq2OVx4Qm3pvF7f4YWRKpi0czwmnb4W4E79RewhnKec46/TtNDheuSgK5T5x/5xviwd0223Pt6XjuUF9e6WYly+JH2BlvE3VJ83xikfFM9lhcUfvd8UBZWO7polxvEYT0P8NcUVmmlidqYjrsVJ+sJG8n/qoXn2XtzZEUezJFMWzoyfF4wsfFm/4Gb+dZVLjeGEmqXLf+K0HdetJpeNdvnni7L3IwTNi/B88/3dAlFdtFfz+SxjobEsCJEACJEACJEACJEACJEACJEACJEACJEACJEACJEACJEACJEACJEACJEACJEACJEACJEACJEACJEACJEACJEACJEACJEACJEACJEACJEACJEACJEACJEACJEACJNBGBP4Pta7qWmho+60AAAAASUVORK5CYII=;" parent="O73Z84jBXJhSjB4GHqbN-56" vertex="1">
          <mxGeometry x="30" y="35" width="50" height="50" as="geometry" />
        </mxCell>
        <mxCell id="O73Z84jBXJhSjB4GHqbN-61" style="edgeStyle=none;rounded=0;orthogonalLoop=1;jettySize=auto;html=1;exitX=1;exitY=0.75;exitDx=0;exitDy=0;startArrow=oval;startFill=1;endArrow=blockThin;endFill=1;strokeWidth=5;strokeColor=#F0AB00;entryX=0;entryY=0.5;entryDx=0;entryDy=0;" parent="-H8vIctdZyZoKpkkq821-3" source="O73Z84jBXJhSjB4GHqbN-54" target="O73Z84jBXJhSjB4GHqbN-49" edge="1">
          <mxGeometry relative="1" as="geometry">
            <mxPoint x="680" y="354" as="sourcePoint" />
            <mxPoint x="470" y="273" as="targetPoint" />
            <Array as="points">
              <mxPoint x="140" y="213" />
              <mxPoint x="140" y="263" />
            </Array>
          </mxGeometry>
        </mxCell>
        <mxCell id="O73Z84jBXJhSjB4GHqbN-62" style="edgeStyle=none;rounded=0;orthogonalLoop=1;jettySize=auto;html=1;startArrow=oval;startFill=1;endArrow=blockThin;endFill=1;strokeWidth=5;strokeColor=#F0AB00;exitX=1;exitY=0.25;exitDx=0;exitDy=0;" parent="-H8vIctdZyZoKpkkq821-3" source="O73Z84jBXJhSjB4GHqbN-59" edge="1">
          <mxGeometry relative="1" as="geometry">
            <mxPoint x="430" y="263" as="sourcePoint" />
            <mxPoint x="180" y="263" as="targetPoint" />
            <Array as="points">
              <mxPoint x="140" y="313" />
              <mxPoint x="140" y="263" />
            </Array>
          </mxGeometry>
        </mxCell>
        <mxCell id="O73Z84jBXJhSjB4GHqbN-63" style="edgeStyle=none;rounded=0;orthogonalLoop=1;jettySize=auto;html=1;exitX=0;exitY=0.25;exitDx=0;exitDy=0;startArrow=oval;startFill=1;endArrow=block;endFill=1;strokeWidth=4;strokeColor=#F0AB00;entryX=1;entryY=0.25;entryDx=0;entryDy=0;dashed=1;dashPattern=1 1;" parent="-H8vIctdZyZoKpkkq821-3" source="O73Z84jBXJhSjB4GHqbN-49" target="O73Z84jBXJhSjB4GHqbN-54" edge="1">
          <mxGeometry relative="1" as="geometry">
            <mxPoint x="-410" y="-127" as="sourcePoint" />
            <mxPoint x="-340" y="-178" as="targetPoint" />
            <Array as="points">
              <mxPoint x="150" y="253" />
              <mxPoint x="150" y="193" />
            </Array>
          </mxGeometry>
        </mxCell>
        <mxCell id="O73Z84jBXJhSjB4GHqbN-64" style="edgeStyle=none;rounded=0;orthogonalLoop=1;jettySize=auto;html=1;exitX=0;exitY=0.75;exitDx=0;exitDy=0;startArrow=oval;startFill=1;endArrow=block;endFill=1;strokeWidth=4;strokeColor=#F0AB00;entryX=1;entryY=0.75;entryDx=0;entryDy=0;dashed=1;dashPattern=1 1;" parent="-H8vIctdZyZoKpkkq821-3" source="O73Z84jBXJhSjB4GHqbN-49" target="O73Z84jBXJhSjB4GHqbN-59" edge="1">
          <mxGeometry relative="1" as="geometry">
            <mxPoint x="190" y="263" as="sourcePoint" />
            <mxPoint x="120" y="203" as="targetPoint" />
            <Array as="points">
              <mxPoint x="150" y="273" />
              <mxPoint x="150" y="333" />
            </Array>
          </mxGeometry>
        </mxCell>
        <mxCell id="-H8vIctdZyZoKpkkq821-4" value="" style="group" vertex="1" connectable="0" parent="1">
          <mxGeometry x="1000" y="40" width="290" height="500" as="geometry" />
        </mxCell>
        <mxCell id="O73Z84jBXJhSjB4GHqbN-5" value="&lt;div&gt;Data Orchestration&lt;/div&gt;" style="rounded=0;whiteSpace=wrap;html=1;fontColor=#FFFFFF;fillColor=#F0AB00;strokeColor=#F0AB00;fontSize=16;shadow=1;" parent="-H8vIctdZyZoKpkkq821-4" vertex="1">
          <mxGeometry width="290" height="60" as="geometry" />
        </mxCell>
        <mxCell id="O73Z84jBXJhSjB4GHqbN-18" value="&lt;div style=&quot;&quot;&gt;&lt;div style=&quot;&quot;&gt;&lt;div style=&quot;&quot;&gt;&lt;font color=&quot;#000000&quot;&gt;Pipeline-driven data integration for disparate kinds of data supporting also distributed processing.&lt;/font&gt;&lt;/div&gt;&lt;/div&gt;&lt;div style=&quot;font-size: 16px;&quot;&gt;&lt;br&gt;&lt;/div&gt;&lt;/div&gt;" style="rounded=0;whiteSpace=wrap;html=1;fontColor=#FFFFFF;fillColor=#FFFFFF;strokeColor=#feefc9;fontSize=16;shadow=1;align=center;verticalAlign=top;" parent="-H8vIctdZyZoKpkkq821-4" vertex="1">
          <mxGeometry y="60" width="290" height="320" as="geometry" />
        </mxCell>
        <mxCell id="O73Z84jBXJhSjB4GHqbN-27" value="&lt;div style=&quot;&quot;&gt;&lt;div style=&quot;&quot;&gt;&lt;div style=&quot;&quot;&gt;&lt;u&gt;Example&lt;/u&gt;: Enable data science and machine learning across all enterprise data assets by integrating data across diverse landscapes.&lt;/div&gt;&lt;/div&gt;&lt;div style=&quot;font-size: 14px;&quot;&gt;&lt;br&gt;&lt;/div&gt;&lt;/div&gt;" style="rounded=0;whiteSpace=wrap;html=1;fontColor=#000000;fillColor=#FEEFC9;strokeColor=#FEEFC9;align=left;verticalAlign=top;fontSize=14;" parent="-H8vIctdZyZoKpkkq821-4" vertex="1">
          <mxGeometry y="400" width="290" height="100" as="geometry" />
        </mxCell>
        <mxCell id="O73Z84jBXJhSjB4GHqbN-65" value="" style="group" parent="-H8vIctdZyZoKpkkq821-4" vertex="1" connectable="0">
          <mxGeometry x="10" y="293" width="85" height="80" as="geometry" />
        </mxCell>
        <mxCell id="O73Z84jBXJhSjB4GHqbN-66" value="Application" style="rounded=0;whiteSpace=wrap;html=1;fillColor=#000000;fontColor=#FFFFFF;fontSize=13;" parent="O73Z84jBXJhSjB4GHqbN-65" vertex="1">
          <mxGeometry width="85" height="30" as="geometry" />
        </mxCell>
        <mxCell id="O73Z84jBXJhSjB4GHqbN-67" value="" style="rounded=0;whiteSpace=wrap;html=1;" parent="O73Z84jBXJhSjB4GHqbN-65" vertex="1">
          <mxGeometry y="30" width="85" height="50" as="geometry" />
        </mxCell>
        <mxCell id="O73Z84jBXJhSjB4GHqbN-68" value="" style="rounded=0;whiteSpace=wrap;html=1;fillColor=#595959;fontColor=#FFFFFF;align=left;verticalAlign=top;" parent="O73Z84jBXJhSjB4GHqbN-65" vertex="1">
          <mxGeometry x="5" y="35" width="75" height="40" as="geometry" />
        </mxCell>
        <mxCell id="O73Z84jBXJhSjB4GHqbN-69" value="" style="shape=image;verticalLabelPosition=bottom;labelBackgroundColor=default;verticalAlign=top;aspect=fixed;imageAspect=0;image=data:image/png,iVBORw0KGgoAAAANSUhEUgAAAJ4AAACeCAYAAADDhbN7AAAAAXNSR0IArs4c6QAAAIRlWElmTU0AKgAAAAgABQESAAMAAAABAAEAAAEaAAUAAAABAAAASgEbAAUAAAABAAAAUgEoAAMAAAABAAIAAIdpAAQAAAABAAAAWgAAAAAAAADcAAAAAQAAANwAAAABAAOgAQADAAAAAQABAACgAgAEAAAAAQAAAJ6gAwAEAAAAAQAAAJ4AAAAAeonODQAAAAlwSFlzAAAh1QAAIdUBBJy0nQAADL5JREFUeAHtnXuMXUUdx+c+drfsltJuiy2tFajEaknFAJr4akIEQjABtQ9joUQLklRBAwaVxD8QoUr5Q/4RIyg0to2RWlOBRIkkiI+ioTYUBdsA0nbb7Yt23e2W3e59+Z3dndu5Z88999xzzj0z95zvJLMzZ+Y3M7/fZ35nzvOeFYKBBEiABEiABEiABEiABEiABEiABEiABEiABEiABEiABEiABEiABEiABEiABEiABEiABEiABEiABEiABEiABEiABEiABEiABEiABEiABEiABEiABEiABEiABEiABEiABEiABEIRyIRqnZLGlUpFcspOmqtSN+vLk4XlTCZTcRNg2QSB1DgenGdxuVz+Ksy+KpvNXm6bA5RKpR25XG479PolnPaobfpRnzoE4FgXYPIeQ5rYAPvuh3Gz6yBoq+K2XPEA/06sXg9h5TonCtroq4h+NqK/l5DKOCQjVp5TSEMF6HouOpiBOAvx0xjrSoyzNlSnWmP0dwr9rYGuv9OKmY2CAPb0Tc0uY2hzDPGnaPeBKHSIuw/ovVjajTgQwPb1ceubmPEAfMwPcMjth1xXYgz3YQjsnVYsFn05JPiM+ugy3SKA9BMvZ0P9btTLwxaDgwC4XAI+R7z4oe5rjmbp3gSQ77gBA8giyiM5j0sbYXC7GPzKblxR9om08Zhibx0wi6cIsiAwATBe5uQsnTJwhxE0NHpVK2HoNuDKzKg+ui5JzAO3vPld0m0zxdzrLryuX+R57HGvq04B5GlTAJQOaUjBWD5RyeAWTPWCA+zvNmG7sRUGBldXOzpd/FNvmr+xFS9+1BzRJgJWOB4Ou7+yCUrSdQHvfaZttOJQqyDwkKtItCbF4bUTPZ9x9m6CuxUrngIhzzsmQ4cqYxqeAJguklzR0xSnC997sB6scDxcZT3iUH/8cZm81wRe73XUcdMHAXC7TDqbDBB/S28Crjfp26nKTyCZ+KsMhwP+US935gFsQMkynUoAfOSTnroB9XepVrqQKktF6mU46jr0eq88YG5GvbFzVROTBXtnYyd91ouLqgOf0246qnqZutUntqwZwwFvjy7fRP52yM5pR4jQ+z2I32vC1qoonPK5RjZXhZFpJNuKemMrhTRcGdTsVRWafhltn1Ttw6SYpP+h/duIr+CFyheR7oI+/wrTp1tb6HwZyj+CdAXiAuQvxngz3WQDlK2AztuaaQcdAvNvZpx6sm3peG7GgON8xI2YgGvc6pNQBvu2wb5bEN8Naw/6Mup4YfUP3F4arkLgTnw2xDh5xF4csjeoMW1Mod966DUTMefTtMBiuv2BOwnRMDErXggGvppioqZBcO6k8EUujfbJMqxG+13qrCuSjqeUgs6x+0HsAypjTRuu9Ehrapq/FTeQ0zr5ababjpfm2Tdou9WOJw8HMuCk+7hBRhy6BQSsdjxlL+53zZlwwZq/C1U90/YjYLvjef3o50D74abGxgnoa5dfZXDIrfk2it92lJtKIAj/qb0EL+HtlODs2rqldDxlgIn7eLYfahUbpgkjYIXjYec7L2FcrTYHvD9ktYKtVE4u9XrA+dtrrRyPfU8QAOdBnbvMp4qN03i1DTCbUwUiJmPxdam/KsbONCYV7BhGNx7OVu/jMvy9RYjpAuNrdc4qD96jKi/TEEO0X1On4djO6WXOPPbYl9vPyvg1hlN5vq2tNNL5qrJUpF6Go26nXu+RX5UKWHWMBJd1HmyqVXjL+vfOLqqVyDjrEr3t13DswVt02UZ5yA8h/ixJ8GDPZsThRrY76u/xYqDLesklri6o4ZiAR/W2QfLo4yTabUT8EqKRbyRj3I8i3oHVaBvS0AE2/bAZJ9EHbKZdVLKJeHIBiN/CBD6Ilwm6ogJjaz+wcwR2LsfThimHz2Z0lo6n5E08uVBjx57GscdhjCzitZis3+rj2Z7H6vVr6NjSHy3pDGKffAyYiBUvanCYlM/BWa/BSrAEaQ/Sbowx/tFvrDZ1P/4NWfn/MWQYQh9DkD2BdBfSP6GPFyaq7PgrHU9pYmLFo+Mp+ilLTTueFc9qUzbnNBcE6Hh0AyMErHY8eThQASfcm4wQ4qDJIqAcSqb1LNNlnHmcyD9Trx3LGxPQeTaWTpCEX8Ox0h3QZfV8gnDEbkpqOQYxHG3y8mUB2RYO+U7ss5WgAYPwj9J83k6JkmYb9SUdT6lr4j6e1RcXCgzT5BGg4yVvTtvCIiscT1/224JaGysJ1gts4J23haEGI4dzDqP/0tIWJlHqAb7ys7fWfDXfihXPAbgknVC+oeEo52YAAuD4z8md2hqnC2BGdE0kDBVkr7ghXPfz+YVCYS9kW/551uisM9cTOMlP7tZ9Wxl1P5LaKfYyNaetgZHrGY7yS/U6j7yNq3XsJMFniQcjvUp+Srca9IpqYRoyfgyHzFpdrlEeq+Z2yCTyV/Kw63LY94dGDBz1K+r5ki5XTyaR5UEMx1OLP+vtms1PPvW4Du3m2QIVumQQ5ZXmahwGdyMNHOSO59cufRC/baKUa+snF4An/7fFY7gK/myUUHz0NegiE+v3X+BkW/Bm8zdh+wkXXRoWScdTQiaeXKixY0+l4Sq0YnCsbqsR6362QY1tcwrneh763dAKPrrdrejf2j5tMBw6dCFOR7wBTvoXXadW5eFML6Dv6xF7EI3dR8XY1WDCSdr6UGsCWFLGlF6nbDFxqOUtCUWfaawE6Hix4uZgioDVjlc9CalUvq4UZkoCoQhoTlU913B2qMvoeZygN/xHwM6+uF1LQOdZW5PwLT+GT14B6qI1+YQjaql5OsiWDmRb580aDvl5uLM/1mw72+y2RR/THHk7xRZPiFkP6XhqSN5OUSSYJp6A1Ve1iaefYgONOd6JH5/9fLG+7Kd4LmIzXec9uK3mNb3YdDDmeCMvba0xUsIYfe3FnTWF3IiUQOF0//jFmeq0UnwXryKfUZuxpsYcT1p5cFVGFA7+p2pw15JlV0gHLJweKlULmQlNQDKVId99QYfqbPSNR8TQ9h61GXtq1PGktUfvXjLugLrl+e5z5Sdkq2H4+cfn6vXMexMYffWJRVV4yDilB3+TEWd23+UsjnXbuOMpa+XqJ6Nb6PnMbUcUyMLQ8ZPvPPXAAje5tJadevrm5YVT/UXFqGvpV95yYyEdTkYbgjEt+laKKXuiDiR/4YfFvId360We+dKpY5/Pz5jr+9Vvz84sriwc2nFPfv7HN/hVcXA7Xowuqk8zu7eauTL+b2Fb63i1iDLi/PV/F12XfKy22MdWaWykUDz4ysHSv3/+qZ4bn+j30cSoyMC2NWt6lt37YHbGhfNznd1N/6TzzL4nxejOtU3ZQMdrAlfX0qvFrHW/EPk572uilT/R4vDxghg+chwfxX8z09F9LDd70atj+/5RkK2Lx/ae/TxabgRvEGeqO29+3qWzpEzngk/miv07r66UyudVOrsX5WZeND3XNb0qJ2WiCKWhvWLk5ZtFaSDczQA6XgSzkZ29UMzdsEtke3pFJmvNKWxgyyrlgiiP9Ivh5/CrzfJI4H68GppwPGPv/HuBCFNXPtEnDt96/ngXHYtceursER0LrhSd779KTFu6UuTnLnERiqeoePJ1MbZniygc/psoHt4BxxpfVGsGz8+v2UzMRuTLv18yjS4u/PbjJefqeF4NmqzLzsZn81v8T6zicDwTK177H4uadBaK20GAjmfHPKROCzpe6qbcDoPpeHbMQ+q0oOOlbsrtMJiOZ8c8pE4LOl7qptwOg+l4dsxD6rSg46Vuyu0w2JzjVcQeOxCkW4viIbHRBAFjj8yksa1+bMZHZo1dysTjMqmVuRUPgy/cGv8LiI2nIh0S5bKomHI6Sdio40kFpPMBwr0yzxAPgbFDYlXvF83OvdFDrRPzgeXi0UxWrHOWB93mobaWXGVI3DfrVvH92lIzW1Y5no5g/wpRyGZEqPcF6Xh4xa8iCr2rRKfO1oa8tY6nw+n7gtgscuImvcxPPq2OVx4Qm3pvF7f4YWRKpi0czwmnb4W4E79RewhnKec46/TtNDheuSgK5T5x/5xviwd0223Pt6XjuUF9e6WYly+JH2BlvE3VJ83xikfFM9lhcUfvd8UBZWO7polxvEYT0P8NcUVmmlidqYjrsVJ+sJG8n/qoXn2XtzZEUezJFMWzoyfF4wsfFm/4Gb+dZVLjeGEmqXLf+K0HdetJpeNdvnni7L3IwTNi/B88/3dAlFdtFfz+SxjobEsCJEACJEACJEACJEACJEACJEACJEACJEACJEACJEACJEACJEACJEACJEACJEACJEACJEACJEACJEACJEACJEACJEACJEACJEACJEACJEACJEACJEACJEACJEACJNBGBP4Pta7qWmho+60AAAAASUVORK5CYII=;" parent="O73Z84jBXJhSjB4GHqbN-65" vertex="1">
          <mxGeometry x="17.5" y="30" width="50" height="50" as="geometry" />
        </mxCell>
        <mxCell id="O73Z84jBXJhSjB4GHqbN-70" value="" style="group" parent="-H8vIctdZyZoKpkkq821-4" vertex="1" connectable="0">
          <mxGeometry x="103" y="293" width="85" height="80" as="geometry" />
        </mxCell>
        <mxCell id="O73Z84jBXJhSjB4GHqbN-71" value="DWH" style="rounded=0;whiteSpace=wrap;html=1;fillColor=#000000;fontColor=#FFFFFF;fontSize=13;" parent="O73Z84jBXJhSjB4GHqbN-70" vertex="1">
          <mxGeometry width="85" height="30" as="geometry" />
        </mxCell>
        <mxCell id="O73Z84jBXJhSjB4GHqbN-72" value="" style="rounded=0;whiteSpace=wrap;html=1;" parent="O73Z84jBXJhSjB4GHqbN-70" vertex="1">
          <mxGeometry y="30" width="85" height="50" as="geometry" />
        </mxCell>
        <mxCell id="O73Z84jBXJhSjB4GHqbN-73" value="" style="rounded=0;whiteSpace=wrap;html=1;fillColor=#595959;fontColor=#FFFFFF;align=left;verticalAlign=top;" parent="O73Z84jBXJhSjB4GHqbN-70" vertex="1">
          <mxGeometry x="5" y="35" width="75" height="40" as="geometry" />
        </mxCell>
        <mxCell id="O73Z84jBXJhSjB4GHqbN-74" value="" style="shape=image;verticalLabelPosition=bottom;labelBackgroundColor=default;verticalAlign=top;aspect=fixed;imageAspect=0;image=data:image/png,iVBORw0KGgoAAAANSUhEUgAAAJ4AAACeCAYAAADDhbN7AAAAAXNSR0IArs4c6QAAAIRlWElmTU0AKgAAAAgABQESAAMAAAABAAEAAAEaAAUAAAABAAAASgEbAAUAAAABAAAAUgEoAAMAAAABAAIAAIdpAAQAAAABAAAAWgAAAAAAAADcAAAAAQAAANwAAAABAAOgAQADAAAAAQABAACgAgAEAAAAAQAAAJ6gAwAEAAAAAQAAAJ4AAAAAeonODQAAAAlwSFlzAAAh1QAAIdUBBJy0nQAADL5JREFUeAHtnXuMXUUdx+c+drfsltJuiy2tFajEaknFAJr4akIEQjABtQ9joUQLklRBAwaVxD8QoUr5Q/4RIyg0to2RWlOBRIkkiI+ioTYUBdsA0nbb7Yt23e2W3e59+Z3dndu5Z88999xzzj0z95zvJLMzZ+Y3M7/fZ35nzvOeFYKBBEiABEiABEiABEiABEiABEiABEiABEiABEiABEiABEiABEiABEiABEiABEiABEiABEiABEiABEiABEiABEiABEiABEiABEiABEiABEiABEiABEiABEiABEiABEiABEiABEIRyIRqnZLGlUpFcspOmqtSN+vLk4XlTCZTcRNg2QSB1DgenGdxuVz+Ksy+KpvNXm6bA5RKpR25XG479PolnPaobfpRnzoE4FgXYPIeQ5rYAPvuh3Gz6yBoq+K2XPEA/06sXg9h5TonCtroq4h+NqK/l5DKOCQjVp5TSEMF6HouOpiBOAvx0xjrSoyzNlSnWmP0dwr9rYGuv9OKmY2CAPb0Tc0uY2hzDPGnaPeBKHSIuw/ovVjajTgQwPb1ceubmPEAfMwPcMjth1xXYgz3YQjsnVYsFn05JPiM+ugy3SKA9BMvZ0P9btTLwxaDgwC4XAI+R7z4oe5rjmbp3gSQ77gBA8giyiM5j0sbYXC7GPzKblxR9om08Zhibx0wi6cIsiAwATBe5uQsnTJwhxE0NHpVK2HoNuDKzKg+ui5JzAO3vPld0m0zxdzrLryuX+R57HGvq04B5GlTAJQOaUjBWD5RyeAWTPWCA+zvNmG7sRUGBldXOzpd/FNvmr+xFS9+1BzRJgJWOB4Ou7+yCUrSdQHvfaZttOJQqyDwkKtItCbF4bUTPZ9x9m6CuxUrngIhzzsmQ4cqYxqeAJguklzR0xSnC997sB6scDxcZT3iUH/8cZm81wRe73XUcdMHAXC7TDqbDBB/S28Crjfp26nKTyCZ+KsMhwP+US935gFsQMkynUoAfOSTnroB9XepVrqQKktF6mU46jr0eq88YG5GvbFzVROTBXtnYyd91ouLqgOf0246qnqZutUntqwZwwFvjy7fRP52yM5pR4jQ+z2I32vC1qoonPK5RjZXhZFpJNuKemMrhTRcGdTsVRWafhltn1Ttw6SYpP+h/duIr+CFyheR7oI+/wrTp1tb6HwZyj+CdAXiAuQvxngz3WQDlK2AztuaaQcdAvNvZpx6sm3peG7GgON8xI2YgGvc6pNQBvu2wb5bEN8Naw/6Mup4YfUP3F4arkLgTnw2xDh5xF4csjeoMW1Mod966DUTMefTtMBiuv2BOwnRMDErXggGvppioqZBcO6k8EUujfbJMqxG+13qrCuSjqeUgs6x+0HsAypjTRuu9Ehrapq/FTeQ0zr5ababjpfm2Tdou9WOJw8HMuCk+7hBRhy6BQSsdjxlL+53zZlwwZq/C1U90/YjYLvjef3o50D74abGxgnoa5dfZXDIrfk2it92lJtKIAj/qb0EL+HtlODs2rqldDxlgIn7eLYfahUbpgkjYIXjYec7L2FcrTYHvD9ktYKtVE4u9XrA+dtrrRyPfU8QAOdBnbvMp4qN03i1DTCbUwUiJmPxdam/KsbONCYV7BhGNx7OVu/jMvy9RYjpAuNrdc4qD96jKi/TEEO0X1On4djO6WXOPPbYl9vPyvg1hlN5vq2tNNL5qrJUpF6Go26nXu+RX5UKWHWMBJd1HmyqVXjL+vfOLqqVyDjrEr3t13DswVt02UZ5yA8h/ixJ8GDPZsThRrY76u/xYqDLesklri6o4ZiAR/W2QfLo4yTabUT8EqKRbyRj3I8i3oHVaBvS0AE2/bAZJ9EHbKZdVLKJeHIBiN/CBD6Ilwm6ogJjaz+wcwR2LsfThimHz2Z0lo6n5E08uVBjx57GscdhjCzitZis3+rj2Z7H6vVr6NjSHy3pDGKffAyYiBUvanCYlM/BWa/BSrAEaQ/Sbowx/tFvrDZ1P/4NWfn/MWQYQh9DkD2BdBfSP6GPFyaq7PgrHU9pYmLFo+Mp+ilLTTueFc9qUzbnNBcE6Hh0AyMErHY8eThQASfcm4wQ4qDJIqAcSqb1LNNlnHmcyD9Trx3LGxPQeTaWTpCEX8Ox0h3QZfV8gnDEbkpqOQYxHG3y8mUB2RYO+U7ss5WgAYPwj9J83k6JkmYb9SUdT6lr4j6e1RcXCgzT5BGg4yVvTtvCIiscT1/224JaGysJ1gts4J23haEGI4dzDqP/0tIWJlHqAb7ys7fWfDXfihXPAbgknVC+oeEo52YAAuD4z8md2hqnC2BGdE0kDBVkr7ghXPfz+YVCYS9kW/551uisM9cTOMlP7tZ9Wxl1P5LaKfYyNaetgZHrGY7yS/U6j7yNq3XsJMFniQcjvUp+Srca9IpqYRoyfgyHzFpdrlEeq+Z2yCTyV/Kw63LY94dGDBz1K+r5ki5XTyaR5UEMx1OLP+vtms1PPvW4Du3m2QIVumQQ5ZXmahwGdyMNHOSO59cufRC/baKUa+snF4An/7fFY7gK/myUUHz0NegiE+v3X+BkW/Bm8zdh+wkXXRoWScdTQiaeXKixY0+l4Sq0YnCsbqsR6362QY1tcwrneh763dAKPrrdrejf2j5tMBw6dCFOR7wBTvoXXadW5eFML6Dv6xF7EI3dR8XY1WDCSdr6UGsCWFLGlF6nbDFxqOUtCUWfaawE6Hix4uZgioDVjlc9CalUvq4UZkoCoQhoTlU913B2qMvoeZygN/xHwM6+uF1LQOdZW5PwLT+GT14B6qI1+YQjaql5OsiWDmRb580aDvl5uLM/1mw72+y2RR/THHk7xRZPiFkP6XhqSN5OUSSYJp6A1Ve1iaefYgONOd6JH5/9fLG+7Kd4LmIzXec9uK3mNb3YdDDmeCMvba0xUsIYfe3FnTWF3IiUQOF0//jFmeq0UnwXryKfUZuxpsYcT1p5cFVGFA7+p2pw15JlV0gHLJweKlULmQlNQDKVId99QYfqbPSNR8TQ9h61GXtq1PGktUfvXjLugLrl+e5z5Sdkq2H4+cfn6vXMexMYffWJRVV4yDilB3+TEWd23+UsjnXbuOMpa+XqJ6Nb6PnMbUcUyMLQ8ZPvPPXAAje5tJadevrm5YVT/UXFqGvpV95yYyEdTkYbgjEt+laKKXuiDiR/4YfFvId360We+dKpY5/Pz5jr+9Vvz84sriwc2nFPfv7HN/hVcXA7Xowuqk8zu7eauTL+b2Fb63i1iDLi/PV/F12XfKy22MdWaWykUDz4ysHSv3/+qZ4bn+j30cSoyMC2NWt6lt37YHbGhfNznd1N/6TzzL4nxejOtU3ZQMdrAlfX0qvFrHW/EPk572uilT/R4vDxghg+chwfxX8z09F9LDd70atj+/5RkK2Lx/ae/TxabgRvEGeqO29+3qWzpEzngk/miv07r66UyudVOrsX5WZeND3XNb0qJ2WiCKWhvWLk5ZtFaSDczQA6XgSzkZ29UMzdsEtke3pFJmvNKWxgyyrlgiiP9Ivh5/CrzfJI4H68GppwPGPv/HuBCFNXPtEnDt96/ngXHYtceursER0LrhSd779KTFu6UuTnLnERiqeoePJ1MbZniygc/psoHt4BxxpfVGsGz8+v2UzMRuTLv18yjS4u/PbjJefqeF4NmqzLzsZn81v8T6zicDwTK177H4uadBaK20GAjmfHPKROCzpe6qbcDoPpeHbMQ+q0oOOlbsrtMJiOZ8c8pE4LOl7qptwOg+l4dsxD6rSg46Vuyu0w2JzjVcQeOxCkW4viIbHRBAFjj8yksa1+bMZHZo1dysTjMqmVuRUPgy/cGv8LiI2nIh0S5bKomHI6Sdio40kFpPMBwr0yzxAPgbFDYlXvF83OvdFDrRPzgeXi0UxWrHOWB93mobaWXGVI3DfrVvH92lIzW1Y5no5g/wpRyGZEqPcF6Xh4xa8iCr2rRKfO1oa8tY6nw+n7gtgscuImvcxPPq2OVx4Qm3pvF7f4YWRKpi0czwmnb4W4E79RewhnKec46/TtNDheuSgK5T5x/5xviwd0223Pt6XjuUF9e6WYly+JH2BlvE3VJ83xikfFM9lhcUfvd8UBZWO7polxvEYT0P8NcUVmmlidqYjrsVJ+sJG8n/qoXn2XtzZEUezJFMWzoyfF4wsfFm/4Gb+dZVLjeGEmqXLf+K0HdetJpeNdvnni7L3IwTNi/B88/3dAlFdtFfz+SxjobEsCJEACJEACJEACJEACJEACJEACJEACJEACJEACJEACJEACJEACJEACJEACJEACJEACJEACJEACJEACJEACJEACJEACJEACJEACJEACJEACJEACJEACJEACJEACJNBGBP4Pta7qWmho+60AAAAASUVORK5CYII=;" parent="O73Z84jBXJhSjB4GHqbN-70" vertex="1">
          <mxGeometry x="17.5" y="30" width="50" height="50" as="geometry" />
        </mxCell>
        <mxCell id="O73Z84jBXJhSjB4GHqbN-75" value="" style="group" parent="-H8vIctdZyZoKpkkq821-4" vertex="1" connectable="0">
          <mxGeometry x="197" y="293" width="85" height="80" as="geometry" />
        </mxCell>
        <mxCell id="O73Z84jBXJhSjB4GHqbN-76" value="Data Lake" style="rounded=0;whiteSpace=wrap;html=1;fillColor=#000000;fontColor=#FFFFFF;fontSize=13;" parent="O73Z84jBXJhSjB4GHqbN-75" vertex="1">
          <mxGeometry width="85" height="30" as="geometry" />
        </mxCell>
        <mxCell id="O73Z84jBXJhSjB4GHqbN-77" value="" style="rounded=0;whiteSpace=wrap;html=1;" parent="O73Z84jBXJhSjB4GHqbN-75" vertex="1">
          <mxGeometry y="30" width="85" height="50" as="geometry" />
        </mxCell>
        <mxCell id="O73Z84jBXJhSjB4GHqbN-78" value="" style="rounded=0;whiteSpace=wrap;html=1;fillColor=#595959;fontColor=#FFFFFF;align=left;verticalAlign=top;" parent="O73Z84jBXJhSjB4GHqbN-75" vertex="1">
          <mxGeometry x="5" y="35" width="75" height="40" as="geometry" />
        </mxCell>
        <mxCell id="O73Z84jBXJhSjB4GHqbN-79" value="" style="shape=image;verticalLabelPosition=bottom;labelBackgroundColor=default;verticalAlign=top;aspect=fixed;imageAspect=0;image=data:image/png,iVBORw0KGgoAAAANSUhEUgAAAEkAAABMCAYAAAAhvppvAAAAAXNSR0IArs4c6QAAAIRlWElmTU0AKgAAAAgABQESAAMAAAABAAEAAAEaAAUAAAABAAAASgEbAAUAAAABAAAAUgEoAAMAAAABAAIAAIdpAAQAAAABAAAAWgAAAAAAAADcAAAAAQAAANwAAAABAAOgAQADAAAAAQABAACgAgAEAAAAAQAAAEmgAwAEAAAAAQAAAEwAAAAAWbWpHgAAAAlwSFlzAAAh1QAAIdUBBJy0nQAACiRJREFUeAHtm2+MXFUZxs+9M7Oz/2prK9sWsLZU1LhUTCMpqQ22JkIhGkK0UD9IlJrUGDHoBzQxIUQLGKJ+UFMjmmhDNH6BRotVISIYCwFaCBGsbQFLW9put3S3u9vd+XPnHn/PnZ3tzs7szp2ZO9M2uW/z7Llzzrnnfc9z3vOec8+9NSaWmIGYgZiBmIGYgZiBmIGYgZiBBhlwGryv4dvsbpMeGzPvGfeM21OlFdtprGtNwiaN71BnfNyY7m5jSExXwVgnYRyV2c6VtvfGVwrGzBtxHCdfpanIspKRtRSyobMjpt+z5vbOlPpsKgeJTGtMh80Zj9JEKm0s9U3KGqfgQI5vElCSd1OmYDx72iTNo6h+O6T6hqq1naRCwVyWSJibrDULIKGSJLphHQgSGY4pOC6eA0kSEt0REEUdY32bI0laa/+IN71SrBX937aT5PombVyzjM4udKtSNNlJ93xnIatcKHPJdBJBpc0UJiAqB1Gvl1eM5tc0U6JpcGYrGN8DPgRWCallt6wwiQ7pxREMbtE4rO9LXQqsAV+k/cuBfkcq7fCkqzH8x4zySixPdaz8aqc38to8kzmGfwSdbKhDLvMwmIDGbPV9f43rut8mIw1+Ak6AyKQdJGlkO8F94GDuzV+vsRMn73ccfz6/Z04ksuoW+HF3QNS7DMRDDIjkd1y/WndLs9zQDpJcOpBMJBJvYcNrmWO7FxOLCk6Tk8IqjBc59iHkGMQ8gZ75EHazCvidIn/vLP2uK7sdJBkML/XIYWUjGNVl4+yVixFdsU7bKAc9z5EqkIsosu0w6VHIypI2LC0nKZ/Py3iDJxWNZB8kJxBRs861EqVzdMt6eWPHB9kATGzxfe/zilDiHt64O7GE9PZCbiyVTCV+SPbAHE3VLGo5STMtKAxBEB1x59IskuYShfzRQXPu2W/CSvIjxXXy/A0OewNr/YXW977M6Gyn5OImKZVKuQV2kIgHnELWJIOFyS8GlVp86Maq4mSMd/IlWnQnXbSyFpvQtE/4qyypL2eu8ayvpVlqe56nAKrSgCQM79C8aDYuWZ5K7ATTbW6xHcHknrtSrdKWbyaTyWQpTBdHlMeKWkZFWZ7TE2CT0nKSsK80o2SsRWH7SGqaniK77SCpFDNEjuNYntvbJHow5lilNEgNa205ScSknLYACOEhWIcy+oHlEY2zWqsuKGCha15Py0maFpOkS4Pry+xWM1RcK4oPc9UpDJ/bNtcvM0kHay0mqjTHsqXJXmZAfT9aTlLFjvsM3uQaXzsnjXapM2VmK1OuNrOwlKe0hgRVuZ9dUojaczfWcpIq1MuLCOFBJ5o2v6L1yowI1tKWk8SOWw+a5cbP+FleGO2vjkSFP9atoOWBu26LLsIbYpJCDEpM0sVAEpvJBCeGMiVY0LgsLsrBuU8ICxusEmXYa4cnlQ5q9ZZVBxs6rG+XWOs1H7hburqxqulNdi/nSfKeYEBsHo/S0t+O5R8duaK2pgalpSRh2RZw3+TRrTzKFo4H26TgJEw8VZ0WVTOpPF1qkDxVHKat6e1WuY50uuE5HJvaK8BPwW709RCPfgBOch1MNz/H21Ydv2lTqShVDQphtVDtvml5ajtABNMtUpLo2kfBl4A89D/gRU4AXoKwMa415Swu1NSbC9qoRxwn2fzEjowkiFiK9RvBJ4Heon6XY9u/kxYmj0oCklCo8W65BNPNcdzem7+1HNsUGxuWyEjCgnvAYnA35LwBNKkumCgUOcmOVPen7vw+l+uaMSRKkj6MIZpmR0MbBI18h2RY8YqvCdSzCALtef0chLqJy/h9N9505/n8+q6aWt1QrPv5Ds2cA2+A/XjQXNOJdyVpk0imXVPIOd3rN5uOZauMx6clw0Pv+ol9j7nusJY/3jdleSk7tUTRcgNiCxzUHD/wS3SI+qXY+wXSv2KjYmRoqYsklMjsLnAN6AO9QLFGwXg/qPhIYfI8idfbCelas+gbO9Zl/v20zQ0PjKSu3/Rq9+pbBvIF3w4ePeJ1u94NiZFTixzfd21+PJ098JwpjPDaqFD7lUfpJFKbe10L7M/s0AObdvbsCl6Db0L/XeAf9GMcorR+hpK6SKJFBUBNK8WfT4B5YBSonYfAEVAmGCNJYfASAvjmnrV3rOtae8fhU8NjZ4e8wr3zpn3UgPGPcPN1QF+h9J15+Nbe7Fv7Uv654azJnhu17Nfpu4aqGCb4RJB/lo+cJHrd6bg9CxbYQjbrZycyEDXBkFr0v0O5bFsGFDfl+cFZO2lNkWeEEpToIP9W8CPwAHgelF4fy2iRhWHl0w1P2kDeLjzpFEQ9SLqTeu6JEyfs0NDQSH9/P1GpKOhYwFXxMSaT6baZ4R30f7XJZ5489Lmrti685/4rOubPd50cO3i3+GY25SQc738vD4/+4vdnJrqMe9VTR571xoZ2Hv/6tT/TkB4eNKc3PMPXldYup22tvDeA7dhU4fXkV5VQJKFAhm8F69kYvoBHPMb1MRRNdbBq62QODAws7unpubGzs3MEgvZxz7HZ6k7PR6dsk1ddCT4IVjM/xhmNCdIugozeb6uO4o1CwPGTY+bBJb3mn1z/Bj0Pk04J7ck7VwBtcrdS/uRUYY0LeUAYWU+lD4CDEPQH0iNhCKKe6evrG9yzZ8/j27Zt2xWWIN1HXU2TF7n8E/gLGMLYw6SDxvcPWc/bz4ApDmrTegBk+zq9LaTvIz+5d+/eokeSIaEtTa8RsAiIsGiFUXgEfAesjLbl6FrDtivB4+B1pvW9o6Oj2v2XyWSdE6Q3lRXU+BHWk1bRjr5ufbNGexey+CTK7wK34e1ppvdXqhiTh6DnyT9bpWzWrLCr239pQV+NXbTCALI1NcOQMEH6K16KaqGZKfrC5XoytUCElpokoVTe9gJ4O3SrF7AiJGjPJq+qJtrTaW9XFq+qVZyeF2a6afXQl7JScMkKg609ngjS6ioiQ0tNkhgZkaTt/DWhW704Ky7FLE21v4F36jGx5nSbbExLp/5rQhekac5firIWo78HNoDj9XSgpidNNvYMqR5kNRKXnDC4eoR6P3gKDDHQOncILWFJ+jMtqu5nUXgdqLZyhFbajorYqKPkbiDPWQfOgN+CugiifrivzmD+ZZRdS/2NQPFpHr91NKJtgZTqmU2x64IJ9jgo105aAyi8F6wAtwGOEszT2Kg9UmsFQz4OngCS7eDToGJn21orqreOHR2gH2wEXwOPgiz4OfhY9bvC5Yr90IIyxaXLgZbSz4CrgQK5TgC0ReDZc+qoTJ6lKaq8sAsEVQPRxlDt6QBvuo26Vnsqm57Pz0BXmjTNs5uOQg6x8/4XqXbXp/EiTvEak5mKQrcyOTrLJ2/QU7hOBFJAnZCIIE1Fub6IrGc6ajC0l9G9IqoUO3UtHRlQ0sNlIOpLSYdI0inFwWJR/DdmIGYgZiBmIGYgZiBmIGYgZiBmIGYgZiBmIGYgZiAMA/8HzSrt1D8LWLYAAAAASUVORK5CYII=;" parent="O73Z84jBXJhSjB4GHqbN-75" vertex="1">
          <mxGeometry x="17.5" y="30" width="50" height="52" as="geometry" />
        </mxCell>
        <mxCell id="O73Z84jBXJhSjB4GHqbN-80" value="" style="group" parent="-H8vIctdZyZoKpkkq821-4" vertex="1" connectable="0">
          <mxGeometry x="11" y="130" width="85" height="80" as="geometry" />
        </mxCell>
        <mxCell id="O73Z84jBXJhSjB4GHqbN-81" value="IoT Stream" style="rounded=0;whiteSpace=wrap;html=1;fillColor=#000000;fontColor=#FFFFFF;fontSize=13;" parent="O73Z84jBXJhSjB4GHqbN-80" vertex="1">
          <mxGeometry width="85" height="30" as="geometry" />
        </mxCell>
        <mxCell id="O73Z84jBXJhSjB4GHqbN-82" value="" style="rounded=0;whiteSpace=wrap;html=1;" parent="O73Z84jBXJhSjB4GHqbN-80" vertex="1">
          <mxGeometry y="30" width="85" height="50" as="geometry" />
        </mxCell>
        <mxCell id="O73Z84jBXJhSjB4GHqbN-83" value="" style="rounded=0;whiteSpace=wrap;html=1;fillColor=#595959;fontColor=#FFFFFF;align=left;verticalAlign=top;" parent="O73Z84jBXJhSjB4GHqbN-80" vertex="1">
          <mxGeometry x="5" y="35" width="75" height="40" as="geometry" />
        </mxCell>
        <mxCell id="O73Z84jBXJhSjB4GHqbN-84" value="" style="shape=image;verticalLabelPosition=bottom;labelBackgroundColor=default;verticalAlign=top;aspect=fixed;imageAspect=0;image=data:image/png,iVBORw0KGgoAAAANSUhEUgAAAFIAAABSCAYAAADHLIObAAAAAXNSR0IArs4c6QAAAIRlWElmTU0AKgAAAAgABQESAAMAAAABAAEAAAEaAAUAAAABAAAASgEbAAUAAAABAAAAUgEoAAMAAAABAAIAAIdpAAQAAAABAAAAWgAAAAAAAADcAAAAAQAAANwAAAABAAOgAQADAAAAAQABAACgAgAEAAAAAQAAAFKgAwAEAAAAAQAAAFIAAAAAJL4NmgAAAAlwSFlzAAAh1QAAIdUBBJy0nQAADR9JREFUeAHtnGusXUUVx/c99/ZJWyilFGpLEWpQUCqoVARCWylKLQaID8IH/SRRfGFQoh80haAENCHEEOQRBXyEhyHhgwqoKVYSQULB8KoB5NKWUunDPqS39D6Ov9++Zw777LP3OfucQ0oxeyV/Zu+ZNWtm/rNmZs0+t0RRKSUDJQMlAyUDJQMlAyUDJQMlAyUDJQMlAyUDJQMlAwcgA33d9qlara6k7iKwF0wG+8BEMAwGwCjoB2OgUktt7zVwW19fn+WxYMvy88ACMBUEW9qugiyxjTXYeSSrEJvTyD8NvB/k2QhVLd8IHsPeYMjsJLUz3coSKr4LDIKd4BDwXzAd7AES8gaYBEaAJC8EJ4I7QJ1Inh3IUnAoeBpoazc4DDgZWTKBzCUQNpPB/yEo1CZlCu8XgaOA7bYTJ/h0MIv693dDZi9ELqBhO/wn4GDzPFCS7KieOhecCvTAutBx+l89hYwXweMg2DK1fpbYd8nS6+pE8mz+LHApWAPuBA3t8Z6WCbR/Jf1YTsE2MJhWaPfeC5EO8BWwGkhUIIzHZqGTo3T2I5R8FGQNzMkYBH8GwZZpnuhpZwBJS4p2XA2vgrW0+xDtZrXXUAc93yVyXrKg6HMvRNrGGB1wDywqgZiQputpTy9sK5Bju63arpe36yO2bM8VY52YUTM6kXYz1c5WHiHt6uXte10Nol1jBcp7brdXIgv0MVOl2wnINHYgZL5dROa1+44lOG9AB8Ikv6P6sL+J1OPcj3rek95ilpMrIflcuJn9TWToWFedDZUPxLRXIrv1rIZ6hB++B2/thKdQr5M67XQb+tZOOZT3SmSnntVOv1156LepMV+efiAjrzxpJ6rFmSEmDXUbdNq99BKQOwkn4U1fIj0IeL/2yhju1354mAC8Zxs3mu91rqmjDAQzVfVOJv0GqR8rvJ28DiRDpOvZdz+apPMNrHeAGWAZ9kiadMxLimP5ENgE1iYLij73QuRGGjkSfBY4cD9OBPIcjLYDieHG4OCeBw23FwbrRDwKPgC8pnn9k3i/KqWJIisWBy+eGH8d/y+TMoK9LbxtAMeCw8dLWv5XO+pdDR4CHUteJ9saorN+gJAAOyFR6VTbwZNCSlZM0Iasaxs2vTf7BShpK6+P5m/BzlbSTMGe5GgzdstMpfFMy9dja6iFTsuivE62rGQhndRrXLqBpLxU9aRI+l463TQ4bGpPu0lbTXoJY8PY0eszBXuuCm0Wkcw+FalY6pQMlAz83zLQ9R4pI+xBJ5FcABYD96r0bzfuT+Z7eHgo3M2edi9prmBzIYU/BgcDN/8Q3/FYF6ODy7A1WM/JecDeBynSnlFAer81LPsLdq4h7Um6JpIOGnctB6b+POAh4cCzwiCyo4+B9eAW8BSdbzoksKnOUqAtY0hjyXQffZcACX4AOw+TNgm2jCiWgQ8DD50QciXJNF+x34Zlj2JvkLRjCYY6rkiFTwIH/Qi4ERhLJsMWBxpIkBifHdSF4FlQJ5JBS8zRYCVYCL4MtOfgkwPnNbYjwXdYhhi2OEFpWUzG+cB+XAxcHWlbtns2+Anwp4k9YBDsP2EAd4JbwUQQCGvZAfQuA/8AbgF14X0SuA9cVc9s84DuTHAluDutSp5XpafBD4ArJFdqutNI14Gv5iq2KdCDuhXreoMxlkvPdDubDcRT3/1rjpUYTNE+6T22m54Uvf8o4DVxa802j9lS67tL+3pwJO17U+tYinY6z3C1CxK15XJLi8sMc4V/TAuT1zAp2NCOd363Bg+lIqIt90gnYV6RCmmdXolM2zuQ3gPRRfsUJjc9MYXqv11EhhO0UCd7UOqUzK6beruI7GrWuxjl/monDle66F+9SqcdDR6S5ZGWdWJPXeuknSHk28lO7Lm3urw7qWMbsaQ7EfKLpJ7Y/ZxynTTs5h8fKhkNSMow9op+rVHPoL3h1OZdMjyFLe/E1nvQ3wU2g46lFyKtm+URrTrhwBxo2NiTugbEEzi1naCWUps8by5ie1KZ+n4OW0/edHAoutMst04SiTwvJep8BfwH/AZ0LL0Q+Ryt9Y+MjCxevXp12xsSg/gOOHt0dHSQgToBdXGAvNwKpvN8e70g/8Ew5YZa8Xdz1C4n/2hwteW2mUTIIz0NrAF646Z038grJJ0sywaDDHgxGe8Dx4+Nje2qVCreIOLlTur1T3LdC23D9xXobQA/HxgY+GO6w9jzy7g2vbvruW4DLtt0H5184fL1bxkfJW0S7OmRZ4JTgDaCnZCGyXRS7Otj4O/Ye5G0YwlGO65oBTrroD8D/AqkSICkhY3bAYdlbMd/RUd/SZor2DyewmuA92knJgyYx1h8l+SvYWvjeFb2f7FlP+zbVcDbk/0Loh37JoHXgT3YyzoEKWovvRIpUeHnzPatFdSAgLhfDIzH+MrooCXFVDIsf4PyMEm8NkvNjt6mZ1tXokwVU8ucrG6uuVQrpWTgQGWgp6WdHhRLyWXn5h32yH0sv6IfDtLmwpegYHMIW+6/Xcmmm6KpE3bE/Yq2bSMumhpVZ29ie7g5Xtpd2UxWekuIdB9zvyI1rjscuHe6H+0g389ZHYs2qeTe5k8OM4GBsp/O4v2RtNCXp2dWRRMPnx9NGnk9mo+xSXsM4XeyOVajsUo12nLYjmjLFXOj0VWr6ociCp1Lz0QyYD1wFrgCeOLqQQ7YU1cythFr/oiQ55+Q+m/eWwr2pqAggTfwfAJpP/UMlA1nPFyeBN8Gr5PvSZwr1VVRZfv06BR+3b4DJSe2b2wo6hs1hB8feZXj6v5tv48uP342fw//0Jtf7XON5hT0RGRtoGdjWwJfAhKoB0qEp6JLfCqx4yJ0H+zv73+cwT9LXqagM4eChcCQaj3op+4+YlSJ1DMtOxZIxXXgeezpY5my655oJZ54Sf/u6Jzh2vle5SvlKEtbIitgdG/0wsh6/nlJX/TTXZXo5RPuKfwNs6FNj/+uhEHPoOKJ4HzgsjM4XkvaIOgdARHzyfw08C79ctbgyXdbOA58HujhN6P3HGld0JHEs4BEfwLo8U1tkhdtvzs6fbQaXTwwITpnX+yL5jaK3PKnWwuxcgmcbp4+HN1F1ouNWsXe7Ei3onfoiTsZ8OdA5oDI3wy+qR5YBmZASNZK0OMk8WT0LyRdB9LyLzJ+Qfly0nPBirSC7/wBWqW/Et1cqUQrRmueWNcLUWTI4B39fjzyh5WB6NzVS+LYMpQWTnsh8lSW3UzuzrdBjEu5nXwfhRfATRCRHo51VwH30ItAfDc2TYr1wL7aRHg3nj08PHxmUqe6Opq8405+s+Ew4d8gubU0SnoKeR//t0qo9UWfWjg7+mJjhWJvvRC5iCU7xL73CE15O2gpEPAqCkPg3TmKevgAei/llNezJZSXG8Fu+nBevcCHfVF/f1/EL5vxHt1QFL9YMym1dxNwCKTOSRYXfe6FyBk0Mo1BvQLchYqIHpIeSqjnae3PskX79CD6QxDp9lKXHZuIGt6I91ijiWbJ8MigRBERUXy6h6zCadFOZxmUvErOfpelb54Bdas2tZlHtPWT4qS4Egy36sIpfNDwrui9ZAzUM5MPaeuN76MYbd4OkvVznlsNKqdKPVtSvLX4T3OL2nFw6e0/GDSMGakt25DXKp3mHo1CQyxJVLurMiN6kiWafaNq4ZHYGuBw6ur2VJSApgExCL8tetIaNDd4RZMyGRwKHyeZD+nulQ1S8+oNZPovaOc1FOa/XErRbvCzpMre6dHI5ClxLJu93TR6YN3/5ZeiLRw4RpkdS9dEsjc9BjxlDUX8s5XMJUH+ADgMXf+u5xie/dOUrHZ/R7mDP4/yecA9s0nInwyOoeAMbPop7b6k0rzZ0fDkgWgXh83WsbH4cEsWx4F4Q0aNQfT3wOQ6wqYnGsoLvmQNqFBVB0Dos5ZBnUOFucABTgWS6qFhOpV8A+1jGPRppBtIf03a4BcuZ/Bb8vWwb4GzwMHWr9nRltDW7Fr5etIXQIP0LWV7uCDaRqD9JK14UWj0zIaW4XX8dB/BEzcQwK+Ze1d2gN/QSMZL9oacoZiVxdL2iuafwt1C+cPAoNyl4QS5Fy5AR89ZxvP1QK/zjpwaDrnjIsmD4FpI+x64j7p6nFuHB4uhzhLwFLgBPA0yheVx1SjLFE/7AlfBhfWNOb1HVthLq9E2Ovz1SZXob5nGCmSmzRao8qYKA9UTjwTHgWOBe6YkGi9Oqr1LggRLyGuQaFmuYPMQPP0C9JaDKcC9U5v2dTt4Hpjn/x3Ae32ubL+X/zHIzujEsZ38ttQXXymPqw5F0/lo4d1qIwY3j+2NnhpbHz0wdSB68NB74ttXrr1WBT0RmTQMAUt5XwSM3/R0lxSOEd9WbmfQhU9DbPVB5kqC/fnUd6/Ug7X5V+x05DX80d/Era9Es/DKFZzki0aHojl8tJDIdQzeCXnmiGvjv/HksZSSgZKBkoGSgZKBkoGSgZKBkoGSgZKBkoGSgZKBkoGSgZKBLAb+B7DOf5hte5uzAAAAAElFTkSuQmCC;" parent="O73Z84jBXJhSjB4GHqbN-80" vertex="1">
          <mxGeometry x="22.5" y="35" width="40" height="40" as="geometry" />
        </mxCell>
        <mxCell id="O73Z84jBXJhSjB4GHqbN-85" value="" style="group" parent="-H8vIctdZyZoKpkkq821-4" vertex="1" connectable="0">
          <mxGeometry x="103" y="130" width="85" height="80" as="geometry" />
        </mxCell>
        <mxCell id="O73Z84jBXJhSjB4GHqbN-86" value="ML/Predictive" style="rounded=0;whiteSpace=wrap;html=1;fillColor=#000000;fontColor=#FFFFFF;fontSize=13;" parent="O73Z84jBXJhSjB4GHqbN-85" vertex="1">
          <mxGeometry width="85" height="30" as="geometry" />
        </mxCell>
        <mxCell id="O73Z84jBXJhSjB4GHqbN-87" value="" style="rounded=0;whiteSpace=wrap;html=1;" parent="O73Z84jBXJhSjB4GHqbN-85" vertex="1">
          <mxGeometry y="30" width="85" height="50" as="geometry" />
        </mxCell>
        <mxCell id="O73Z84jBXJhSjB4GHqbN-88" value="" style="rounded=0;whiteSpace=wrap;html=1;fillColor=#595959;fontColor=#FFFFFF;align=left;verticalAlign=top;" parent="O73Z84jBXJhSjB4GHqbN-85" vertex="1">
          <mxGeometry x="5" y="35" width="75" height="40" as="geometry" />
        </mxCell>
        <mxCell id="O73Z84jBXJhSjB4GHqbN-89" value="" style="shape=image;verticalLabelPosition=bottom;labelBackgroundColor=default;verticalAlign=top;aspect=fixed;imageAspect=0;image=data:image/png,iVBORw0KGgoAAAANSUhEUgAAAFUAAABSCAYAAAAl8JjiAAAAAXNSR0IArs4c6QAAAIRlWElmTU0AKgAAAAgABQESAAMAAAABAAEAAAEaAAUAAAABAAAASgEbAAUAAAABAAAAUgEoAAMAAAABAAIAAIdpAAQAAAABAAAAWgAAAAAAAADcAAAAAQAAANwAAAABAAOgAQADAAAAAQABAACgAgAEAAAAAQAAAFWgAwAEAAAAAQAAAFIAAAAABCxx0QAAAAlwSFlzAAAh1QAAIdUBBJy0nQAACeJJREFUeAHtXEuMFUUU7fmAwAIcBALIRyEsFMUPflCjqIkLE3WhQMS9hsSFQaIulI07PzHuMOrCPejG4IaYmJj4F/+fKP4gKgZExSAzzHvzPOfNu2O96lvVVdXdMyO8Ssaquvfce0+d7q7u1+9JlvVaT4GeAj0FegpUpUBfVYmqytNCi83VhxYbUyd+sM7kJXLfEhG7LwJ7ZkJjz9RY/GSo2j8ZRc60GtNG1LGxsY9SzzrGMX66HLwp3eAdIs7GfWc4VCDkmAXsSRs/3W5eNr/ouUOsdh74FtNvtHXRBTwByLvOyM3hYhecTpevjL3yM9Ukap4tsPNJY1TImj6xVd2bXJB7Bmo2pIbpq5pLpaIKUZLUxlxQ1QsQkXy9cJH6Mrd5+nLE+CoT1SQqBMQmixF7TH9oc7Yxa2X3I+bCZbtbmyDE1zHxJtbFR+xVHfBKHv5dpDpnwhXoPzAX5xpDQN6gzsr5/zv0X6FWzg3bW/39/dflHJahw2c9+g9NV8fOZbQ4Nn0p49IJSISFU8lAyLxKjpUs353l+Ep9CcH8AAReI/OYXnKlrkVqlTpTy5CIEVPIar0pAJ5V38H86lRezMVYNjOvVtdnSxaVhZk4tvihrTN+yxqji3ykUn04QzcwFtS4hQyTI9rHsF8WmrMKYZM+UZEpSUYLyku9JkFN0cBrpMPtJvSXCl8T4xt3YnlwgrcmM1+0qFJICpvJXOOjj15zVVWXu6uGZgfHN4QneaMt0HCazYzT/D5btKixxQ5t6fvz5Ddvv+sjUbePnCHoftQ50mw2vwqpxyNAnKw3JEYwSXtqhyTrejf0Y89va53Y95zUCu5nrAqGBgOxr64H3QH0jSLe9DNxiqCMiz5TGcQmBU+dOnXJuKX7v7gTHxq6dxf2pezZbo8+G1iCz5EQ0ycoF2s3PZtuBeem8MYZ+72GQv6LaRechimyJYvKxTH5zJkzP7GLwLUApJbBPrhiT7Z9rJW9YGNk3n/2uJD9s8Xi7rlQaYIiDzaI9LjYAvpBnLHnIyy3xyL/Z4xnzoA8KiRJVNSbw2xcoJoVexcw78PdpH/lnuw+MHzVxvKsHJhvW8PmrC0Ntb6FSDvRs80tyoC4JnDvAXdEwzIv7cC016lhfDaXKL6YiaMoxU0wV8W55ju4KXsZdO+k33eZ06+1xU/kP1GZOKlNm1bfxHIseA3r89l57Hn0mYpi5zGJRgT7aPvS0XyMwVZw11iW7U8RlPFFjXXZiBNRfDGCBe/PbZz4ZL223zePFhXJfnAlBJGL4PN+7l65O1s/sES9t7nSRtsNQUL2xTXAr/UUca7XFZP8SGUnlDMDBA/YPnMuuMMP933a15953/oPLjUj48YUlrXYOHZFw3UAkPaZbeM4Z7wr1mWPErWogE3KLirxgjv8SPtGkbsDlxHTrCmisK7UNP0yFpzM7b4o3sanXP65uyv2pH/sxPYcxNr3eXNxuPEsbDWziXetFLMqQaW+1EP9FWJz9Y515Nbrihd7tKgg+bcESw/bbJDeK3NH/zswfAnd1ZY8nV2J1yy/Vi2mWQR1f8T8J9Nmj8mf67Dt2nptjD0PFhVHUX2mk4R4TrxNxnaP2PZ38sDkSBO7+MlsaWssO27HVTXngz5zgcdRV04f/06sd/1m3mBRccRye1+n2JdmQm2MWL5+26P5xLZwezav1cgOyrzqHoK+CB7nFOUFTn3h4lq/ls95V4QI2l2vH8m77MShNXGknTc9AhDnrGUSO/JMNtw3oHxPBdCCB/wP/2YebVzEA4I2QHPA5kr6yIdH7O5m48RbdKauZqDRugSdSFIgqOBC+oUPZrOwFXT94qTKGxiFdfFwnRhYf/ukEB0Qv8qVg/YiUX2xMb47YsDYCuaMNbLjVYrZqX9DDI9U7KSIiiOce5lSRHjRDuyxzaz9QqYIG+oHjzdDsWVwkyJqKsGhu7NBnLG5vSw132TFlRIV29PGuonO35oNtEbTzljwm/hgEcMTcTfG4G1sKVGRbKGdsI750D3ZID+eh+aGKHPxRzy/Qkl5e1NqXc7HoMAFBD8QB+Zzwoa2hN1UO2K28/Bu7Uzod9SzLpJDW+WrDT/OIPcjCmOL/L78qT7UHGJdNjx7vmLmoc2c22P60bwnG/z8Ksabx87bnjMIzSsqgQSpCTrGIr8vtqwPtV+ycxTxKfIzHzBTLypIrLMXN1XzItGK/CGilr1RhWqT+8Y1NPC0wvGI2U1bIDHYt05pPrERI+Op7n1cuA6Xn3a7lV6LJLQTgcjP9Nl2c04/caZtMsesbzZXbWLw+4FfbL/E2vbSc4jS/mmilohFNbvY4D63CCPYOnrWNpurBjGaj3asv573vb6iOMLeH00xlk0jXbdtvLK/NvjvcvFz2Svh7UoeQpoEOrikX32UWUAIPxcG9pn0xdSPvvtrBUI/uSD2dZA7EUNwMrGOdYzUzkETlUVpZysigL1pLARXlCfG3ybm4ebzp3CNPlO5GN607EXJUQYJ9cs9wePtersmyWIfC/qZpcTW0Qtf4W/WIEdzXtsYdTa4ikHsYy6fTQi4m4lls31Vz8er6HXoA+8/tJr0jYyMtH+vqvkrtbEYm5Z03KP7qsBrOYpsLk4uO/P5fEX1ki5/JL3AlVguI5Da4cKYduBeM+c1jh8yc2Pr2cm58DV9xni5Ma5/6DuS8N1OfwgLXHp7Q7Eh+WwMc7Np9kajoX4hOR6Rj7Fz1DLvFJ+nJYdYJ7XF2NgqRBURXL1dkzjUzd1siYNrHv12TMzc+zLWl0gK4/L5S8PhJs/fV7VbwSWmhSfZQuqQEJODH/9Fi1zjegghLiRfLgEMSXsqCzJZUVH6AR0hHm2bRmCybNhDHxun0ZL/G9BZWtZFvBNUpaNDLKoYYja74qq8/F3rlNrk4cJodonTfJXbUotpcXWLqtUMESQ1jrmTLv/Uy4NxvEGUIRwiCDFSA/2w8I2JJTY2LjS/FyfEvSCHU2Kld8CCzJID++ZTMmYfFGyBJN4yR01TvxefKCLkU4+qxEtCzEdcd2bBmD3PfNTu+idCynJJjRdepUVlIhFGIwPfHNgL/58A5oFAJ4FVH3XodzXUGOYjnMtv2l18fGsw40PGlYjKQhopsdGvCU57UUOO1cBcjr+1+PsCf/uR6zv00c3FR+ypHKOJxASQHBtjxkfdY/HF5KwCiyvghMbH5llFrVpyCHlbQMwn/rk47oO1FLeSog4/HUm73nSLkb1pn7ZjH9HR0dFr616QmR/jW11C+Xi6YkLsle2pIcVsjLaolH2tqjw2v9T5lIpqkjaFiRE2Nc6sfdqPTZFCFhuLD8lZFpP0MbVs0dM9vidqDUc4+SV1DVwmUk7HS3qCXG/QU6CnQE+BngI9Bf7vCvwLJRVFW0sv9A0AAAAASUVORK5CYII=;" parent="O73Z84jBXJhSjB4GHqbN-85" vertex="1">
          <mxGeometry x="21.7" y="35" width="41.6" height="40" as="geometry" />
        </mxCell>
        <mxCell id="O73Z84jBXJhSjB4GHqbN-90" value="" style="group" parent="-H8vIctdZyZoKpkkq821-4" vertex="1" connectable="0">
          <mxGeometry x="195" y="130" width="85" height="82" as="geometry" />
        </mxCell>
        <mxCell id="O73Z84jBXJhSjB4GHqbN-91" value="Unstructured" style="rounded=0;whiteSpace=wrap;html=1;fillColor=#000000;fontColor=#FFFFFF;fontSize=13;" parent="O73Z84jBXJhSjB4GHqbN-90" vertex="1">
          <mxGeometry width="85" height="30" as="geometry" />
        </mxCell>
        <mxCell id="O73Z84jBXJhSjB4GHqbN-92" value="" style="rounded=0;whiteSpace=wrap;html=1;" parent="O73Z84jBXJhSjB4GHqbN-90" vertex="1">
          <mxGeometry y="30" width="85" height="50" as="geometry" />
        </mxCell>
        <mxCell id="O73Z84jBXJhSjB4GHqbN-93" value="" style="rounded=0;whiteSpace=wrap;html=1;fillColor=#595959;fontColor=#FFFFFF;align=left;verticalAlign=top;" parent="O73Z84jBXJhSjB4GHqbN-90" vertex="1">
          <mxGeometry x="5" y="35" width="75" height="40" as="geometry" />
        </mxCell>
        <mxCell id="O73Z84jBXJhSjB4GHqbN-94" value="" style="shape=image;verticalLabelPosition=bottom;labelBackgroundColor=default;verticalAlign=top;aspect=fixed;imageAspect=0;image=data:image/png,iVBORw0KGgoAAAANSUhEUgAAAFUAAABVCAYAAAA49ahaAAAAAXNSR0IArs4c6QAAAIRlWElmTU0AKgAAAAgABQESAAMAAAABAAEAAAEaAAUAAAABAAAASgEbAAUAAAABAAAAUgEoAAMAAAABAAIAAIdpAAQAAAABAAAAWgAAAAAAAADcAAAAAQAAANwAAAABAAOgAQADAAAAAQABAACgAgAEAAAAAQAAAFWgAwAEAAAAAQAAAFUAAAAAtgytwQAAAAlwSFlzAAAh1QAAIdUBBJy0nQAABsFJREFUeAHtWzuLZFUQnp2ZFXXXB+j6gJXNNHAxEDcxENk/ICyogQYbGAlmRoIgBmqiiYGCf2BxWQ02MRFRU0UMVFQwUHwwu8EKPtDu6fH7um9111TXeXXf23emPQdm6lTVV4/zndv30Y+NjToqA5WBykBloDJQGagMVAYqA5WBykBloDJwYBg40kYno9HoZ+TZxLg7lQ/YKxqDmBNaj80Zi7/vt7e3H07htD9UY5ledP7W5nt7e9fwFxyhQjYghBO7xRv9UcFpaTB72qfnuTgd09lcNXPaFoHvmPitT+vLYnCUvccckLs6r50TY21WJ4bD2lemT8qnG0jhlvXLgps8T4tuJf3WZvVULxbfup7TpBSNYVMLicVKfkocqZdi2JhP8qR6EVwncnd390JOk1KcWMT8LrqWsYXEfDqHzImXuZUxn2BL60lcK7K0eAyf8g2Hw/O5TTMXNu8bD0+fZ9c2Yji0bWXzSen84jF8hu+B3IWlcqXyxOJTsZ5/0zOGbCj+b8jXgf3LwpwnC/EHB85dze0mhqWPw8uFi88HIZ+Hj2FjPslFDIfoK5eT8ukGUrgcP8j9O7XAnDzL5kjFW3/Ry5/BRzAouRhKb4hPsB4mw3YU8deD2J0QtqU6ofQL27cXiSRZXBBHE38Kcog/vgcwHiFCEXJcMJSiA/+HtkNnPlvnTthuw9/XgvXqSE7BaF3X0XZilf4ncLI2SbMaORgMzqIRO56JVbdg0WMxuL36VHBKBg8IhZmb6jpzzpnhfo2r88pAZaAy0AUDuBJfmZ12xrN3vToGk3XCtzFKvzFQ4zmFGU89nLah/6GNEV3jeps3zbikSlPAHCdOdE9ioVebXHM42KdvhHuxYgvFi59SMJDntN34im8xbS7qwSuoB27bhgXyoxTeIl2HW5iBzQ/brbQJIdAX+viH8cwTiqcdm/sTBN/wXqgG88toZWck2QJyB+v9CIuZI1Tn4qK1XjJH/nFsKgc+x7qHeWUDSmpYbN+k8tPCs7apkI6j6ceQL2IfRXz7XCni94EjSm+klh4RxGPR46Mpsh7X1RZZbnLH2BupTi8HxoT9W+qJqjdS0fi+Z/0Uo8scbah1cyq/9qPWV1ovnfdGKs6lN5U2i3PqC6UxDd79nGzBXMmw3kiVznAUzd2fik8kyPyY862trVfFlitLjvCcXnLq9kqqLBik/RNqFgs9B9wj8Gd/PcjLlSJM/NKTlyPX1uvNf9PkJhYyahb1EOafS/OyUHxSeh7fn7oq9lJJopiLg7HUJQc2dAfqeMO0XfydSzRgn/0nnTbNSgNTozMRjJUOdGyyONHhnHv2lxyC8aRgtMS6PvSw1VYZqAxUBgoZmJ6wc+J4TsXJ/HaFvQj9CaXPTXHuOgrj3JcwYP8O96r3zQXAcO3iRvQ2a/iLFzWzpfyDH2ZYbzYabZw+dWlj4QeAolsqkHCCV0gOrxlr48UAtjGhk6jJf5jfx+zexm/DDr1eRGrJaoUwIVPHYnN47zneGMFp/2Gfd0YqiRHiQiSJf92I7YTUEpKE2BDxh9HeCakkYh3Jyt3gzkjNbWAdcZXUDna1M1JLzqsdrKvXlF2R+mDuqtaR/E5IxUXqC5KaIkz863ZR64RUEipEkTi8H/oybXqsK6FcYxGp+v3UhqDHSQ6HJkzmJBYxv+EJ6sUJavafGCFe8FVWBioDlYH/MwO4AL01O0tOZjiHfhLjxOI9bA7GxiFm+pN4HW9xWtc4zrWvl7luSBoAoQOxiy0kS3ChHGKXXI28hXZs+Btix/wdwXpScJ5vZbZUEyB3l5hYQ6kcErtsHsSfbGq9JjmtzO3FxrWm5zaQwqX80jBxMreyIMeZNvLY+q3pseZskRi2gJAoqbZmSGc9vILc76rm9hLKbe2lN//8+nbRYMNFAR2BwefbB/Jho3RHY/iYT/NKnNZlDvOzIZ9grAzhaeew+EX1oiN10SIdxU2/c9VR/tWkxWaOn+Fzq3H38bL71sPTx+H5tC2Gifl0Ds6J5bD2lM/Dt26btLZ3LCdxaBElC0nlwKZlneebvt1vOTY+l/CcdVpM8csfDfAKmvxqeduN2sap88KDsYlaN3h+sbGXBs+fu3c+iknF23hb7Koh7SXbIeyPySKALc5v86V01LoMzF9S0+LFTvat78DpePR7hQ0HxmehhgP4fS+9EIb20rwLxiz16xT3HBNqXNvx/Xv+qGH8wwY0/iTmd+BgeFNjAvPnA3ZtzsFo/PQNb/RyFxxPoZfX9wF8JVTnVx9erZWBykBloDJQGagMVAYqA5WBykBloDJQGTh0DPwH0YOHeOGCeAkAAAAASUVORK5CYII=;" parent="O73Z84jBXJhSjB4GHqbN-90" vertex="1">
          <mxGeometry x="21.5" y="34" width="42" height="42" as="geometry" />
        </mxCell>
        <mxCell id="O73Z84jBXJhSjB4GHqbN-95" value="&lt;div&gt;Pipelining&lt;/div&gt;" style="rounded=0;whiteSpace=wrap;html=1;fontColor=#FFFFFF;fillColor=#F0AB00;strokeColor=#F0AB00;fontSize=16;shadow=0;" parent="-H8vIctdZyZoKpkkq821-4" vertex="1">
          <mxGeometry x="10" y="236" width="270" height="30" as="geometry" />
        </mxCell>
        <mxCell id="O73Z84jBXJhSjB4GHqbN-96" style="rounded=0;orthogonalLoop=1;jettySize=auto;html=1;startArrow=block;startFill=1;endArrow=block;endFill=1;strokeWidth=3;strokeColor=#F0AB00;exitX=1;exitY=0.25;exitDx=0;exitDy=0;endSize=2;startSize=2;" parent="-H8vIctdZyZoKpkkq821-4" edge="1">
          <mxGeometry relative="1" as="geometry">
            <mxPoint x="53.25" y="293" as="sourcePoint" />
            <mxPoint x="53" y="266" as="targetPoint" />
          </mxGeometry>
        </mxCell>
        <mxCell id="O73Z84jBXJhSjB4GHqbN-97" style="rounded=0;orthogonalLoop=1;jettySize=auto;html=1;startArrow=block;startFill=1;endArrow=block;endFill=1;strokeWidth=3;strokeColor=#F0AB00;exitX=1;exitY=0.25;exitDx=0;exitDy=0;endSize=2;startSize=2;" parent="-H8vIctdZyZoKpkkq821-4" edge="1">
          <mxGeometry relative="1" as="geometry">
            <mxPoint x="145.5" y="293" as="sourcePoint" />
            <mxPoint x="145.25" y="266" as="targetPoint" />
          </mxGeometry>
        </mxCell>
        <mxCell id="O73Z84jBXJhSjB4GHqbN-98" style="rounded=0;orthogonalLoop=1;jettySize=auto;html=1;startArrow=block;startFill=1;endArrow=block;endFill=1;strokeWidth=3;strokeColor=#F0AB00;exitX=1;exitY=0.25;exitDx=0;exitDy=0;endSize=2;startSize=2;" parent="-H8vIctdZyZoKpkkq821-4" edge="1">
          <mxGeometry relative="1" as="geometry">
            <mxPoint x="240.5" y="293" as="sourcePoint" />
            <mxPoint x="240.25" y="266" as="targetPoint" />
          </mxGeometry>
        </mxCell>
        <mxCell id="O73Z84jBXJhSjB4GHqbN-99" style="rounded=0;orthogonalLoop=1;jettySize=auto;html=1;startArrow=block;startFill=1;endArrow=block;endFill=1;strokeWidth=3;strokeColor=#F0AB00;exitX=1;exitY=0.25;exitDx=0;exitDy=0;endSize=2;startSize=2;" parent="-H8vIctdZyZoKpkkq821-4" edge="1">
          <mxGeometry relative="1" as="geometry">
            <mxPoint x="53.5" y="236" as="sourcePoint" />
            <mxPoint x="53.25" y="209" as="targetPoint" />
          </mxGeometry>
        </mxCell>
        <mxCell id="O73Z84jBXJhSjB4GHqbN-100" style="rounded=0;orthogonalLoop=1;jettySize=auto;html=1;startArrow=block;startFill=1;endArrow=block;endFill=1;strokeWidth=3;strokeColor=#F0AB00;exitX=1;exitY=0.25;exitDx=0;exitDy=0;endSize=2;startSize=2;" parent="-H8vIctdZyZoKpkkq821-4" edge="1">
          <mxGeometry relative="1" as="geometry">
            <mxPoint x="144.5" y="236" as="sourcePoint" />
            <mxPoint x="144.25" y="209" as="targetPoint" />
          </mxGeometry>
        </mxCell>
        <mxCell id="O73Z84jBXJhSjB4GHqbN-101" style="rounded=0;orthogonalLoop=1;jettySize=auto;html=1;startArrow=block;startFill=1;endArrow=block;endFill=1;strokeWidth=3;strokeColor=#F0AB00;exitX=1;exitY=0.25;exitDx=0;exitDy=0;endSize=2;startSize=2;" parent="-H8vIctdZyZoKpkkq821-4" edge="1">
          <mxGeometry relative="1" as="geometry">
            <mxPoint x="236.5" y="237" as="sourcePoint" />
            <mxPoint x="236.25" y="210" as="targetPoint" />
          </mxGeometry>
        </mxCell>
      </root>
    </mxGraphModel>
  </diagram>
</mxfile>
